<?xml version="1.0" encoding="UTF-8"?>
<svg xmlns="http://www.w3.org/2000/svg" version="1.1" viewBox="0 0 800 800">
  <defs>
    <style>
      .cls-1 {
        fill: #fafafa;
        fill-rule: evenodd;
      }
    </style>
  </defs>
  <!-- Generator: Adobe Illustrator 28.7.1, SVG Export Plug-In . SVG Version: 1.2.0 Build 142)  -->
  <g>
    <g id="Layer_1">
      <path class="cls-1" d="M66.7,200c0-73.6,59.7-133.3,133.3-133.3h400c73.6,0,133.3,59.7,133.3,133.3v400c0,73.6-59.7,133.3-133.3,133.3H200c-73.6,0-133.3-59.7-133.3-133.3V200ZM200,133.3c-36.8,0-66.7,29.8-66.7,66.7v400c0,36.8,29.8,66.7,66.7,66.7h200v-233.3h-33.3c-18.4,0-33.3-14.9-33.3-33.3s14.9-33.3,33.3-33.3h33.3v-50c0-64.4,52.2-116.7,116.7-116.7h20c18.4,0,33.3,14.9,33.3,33.3s-14.9,33.3-33.3,33.3h-20c-27.6,0-50,22.4-50,50v50h70c18.4,0,33.3,14.9,33.3,33.3s-14.9,33.3-33.3,33.3h-70v233.3h133.3c36.8,0,66.7-29.8,66.7-66.7V200c0-36.8-29.8-66.7-66.7-66.7H200Z"/>
    </g>
  </g>
</svg>