<?xml version="1.0" encoding="UTF-8"?>
<svg xmlns="http://www.w3.org/2000/svg" version="1.1" viewBox="0 0 300 300">
  <defs>
    <style>
      .cls-1 {
        fill: #ae31ff;
      }
    </style>
  </defs>
  <!-- Generator: Adobe Illustrator 28.7.1, SVG Export Plug-In . SVG Version: 1.2.0 Build 142)  -->
  <g>
    <g id="Layer_3">
      <g>
        <path class="cls-1" d="M168.3,37.5c.2,4.8,1,9.7,1.8,14.5,1.5,8.2,3.9,16.8,8.5,23.8s5.5,6.9,9.4,8.8,8.3,3,12.4,4.3c9.6,3.2,19.1,6.4,28.7,9.6s11.9,4,17.9,6l-3.1-3.1c1,3.8,1.9,7.6,2.9,11.4,2.3,9.1,4.6,18.2,6.9,27.3,2.8,10.9,5.6,21.9,8.3,32.8l7.2,28.4c1.2,4.6,2.2,9.3,3.5,13.9s0,.1,0,.2v-2.4c-.5,2.7-1.1,5.4-1.8,8s-1.3,4.8-2,7.2-.8,2.4-1.2,3.5-.5,1.1-.6,1.6c.1-.5.4-.9,0-.2s-.2.5-.4.8c-.5,1-1,1.9-1.6,2.8s.8-.9.2-.3-.3.3-.4.4c-.6.6.4-.3.4-.3-.3.3-1.2.5.5-.2-2.2.9-3.9,3.1-3.1,5.5s3.2,4.1,5.5,3.1c5.4-2.1,7.4-8.8,9.1-13.9,1.5-4.7,2.7-9.5,3.7-14.3s.6-2.6.3-4-.2-.7-.3-1.1l-1.5-6c-2-7.9-4-15.7-6-23.6l-7.9-31.3c-2.5-10-5.1-20-7.6-29.9s-3.2-12.8-4.9-19.2-.5-2.8-1.2-3.8c-1-1.6-2.6-2-4.3-2.6s-3.3-1.1-5-1.7c-12.2-4.1-24.3-8.2-36.5-12.3s-6-2-8.9-3-2.5-.8-3.8-1.3-.6-.2-.8-.3-1.2-.5-.4-.1-.2,0-.3-.2c-.3-.1-.6-.3-.8-.5s-1.1-.9-1.4-1c0,0,.9.7.4.3s-.2-.2-.3-.3c-.3-.2-.5-.4-.7-.7-.4-.4-.9-.8-1.3-1.3s-.4-.5-.6-.7-.2-.2-.3-.4c-.4-.4.6.9.2.3-1.6-2.3-2.9-4.6-4-7.1s-.1-.3-.2-.5c-.2-.5.4.9.2.4s-.3-.6-.4-1c-.3-.7-.5-1.4-.8-2.1-.5-1.4-.9-2.8-1.3-4.2-.7-2.6-1.3-5.3-1.9-7.9s-.5-2.5-.6-3.7-.2-1-.2-1.5,0-.5-.1-.8c0-.5.1,1.2,0,.6s0-.3,0-.5c-.2-1.6-.4-3.2-.5-4.9s0-1.2-.1-1.8c-.1-2.3-2-4.6-4.5-4.5s-4.6,2-4.5,4.5h0Z"/>
        <path class="cls-1" d="M37,117.5c-2.6,9.5-5,19-7.5,28.5s-2.3,9-3.7,13.4-2.9,8.4-4.3,12.6c-2.5,8-4,16.3-2.5,24.6s3.1,11.7,5.4,17.3,5.7,12.6,10.1,18,3.9,4.5,6.5,5.8c4.1,2.2,8.8,2.3,13.3,2.3,17.6,0,34.9-4.5,51.4-10.2,16.6-5.8,32.6-13,49-19.3,2-.8,3.9-1.5,5.9-2.2s3.3-2.2,3.3-4.3v-44.1c0-3.1-2.9-4.8-5.7-4.3s-6.4,1.1-9.6,1.7c-7.7,1.4-15.4,2.7-23,4.1s-18.7,3.3-28,5l-24.2,4.3c-3.9.7-7.9,1.2-11.7,2.1s-.1,0-.2,0c-2.3.4-3.8,3.4-3.1,5.5s3,3.6,5.5,3.1,6.4-1.1,9.6-1.7c7.7-1.4,15.4-2.7,23-4.1s18.7-3.3,28-5l24.2-4.3c3.9-.7,7.9-1.2,11.7-2.1s.1,0,.2,0l-5.7-4.3v44.1l3.3-4.3c-15.9,5.8-31.4,12.8-47.3,18.7-8.1,3-16.3,5.8-24.7,8-4,1.1-8.1,2-12.2,2.8s-2,.4-3,.5-1,.2-1.5.2-.6,0-.9.1-.9.1-.5,0-.4,0-.5,0c-.2,0-.4,0-.6,0-.5,0-1,.1-1.5.2-1.1.1-2.1.2-3.2.3-4.1.3-8.2.5-12.3.2s-1,0-1.4-.1,0,0,.2,0c-.3,0-.5,0-.8-.1-.5,0-.9-.2-1.4-.3s-.4-.1-.6-.2c-.8-.2.2.2-.2,0s-.8-.4-1.2-.7-.9-.7-.3-.2-.1-.1-.3-.2c-.2-.2-.5-.4-.7-.7-.9-.9-1.7-1.9-2.6-2.9s.3.3.3.3c0,0-.4-.5-.3-.5-.2-.2-.3-.5-.5-.7-.5-.7-.9-1.3-1.4-2-1.7-2.6-3.1-5.4-4.5-8.2s-.7-1.4-1-2.2-.3-.7-.5-1.1c.4.9,0-.2-.2-.5-.6-1.5-1.2-3-1.7-4.6-1-2.8-1.9-5.6-2.6-8.5s-.6-2.4-.8-3.7,0-.5-.1-.7c-.2-1.1,0,.7,0,.1,0-.9-.2-1.7-.2-2.6s0-2,0-3.1,0-1,.1-1.5,0-.6,0-.9.1-.9,0-.5,0-.4,0-.5c0-.2,0-.4.1-.6,0-.5.2-1,.3-1.5.2-1.1.5-2.1.7-3.2,2.2-8.3,5.6-16.3,7.8-24.6s4.7-18.4,7.2-27.6,1.2-4.6,1.9-6.9-.8-5-3.1-5.5-4.9.7-5.5,3.1h0Z"/>
        <path class="cls-1" d="M158.3,208.4c7.7,1.8,15.3,3.7,23,5.5l11.6,2.8c1.6.4,3.1.5,4.7-.3s2.8-1.5,4.1-2.2c5.2-2.9,10.5-6.2,14.7-10.5,1.9-2,3.9-4.4,4.4-7.2s-.5-7.5-2.3-10.9c-3.5-6.6-9.2-12-14.3-17.4-6.1-6.5-12.2-13-18.4-19.6l-.4-.4c-1-1.1-2.9-1.7-4.4-1.2-6.6,2.5-13.3,5-19.9,7.5s-1.9.7-2.9,1.1c-2.2.8-3.9,3.1-3.1,5.5s3.2,4,5.5,3.1c6.6-2.5,13.3-5,19.9-7.5l2.9-1.1-4.4-1.2c7.2,7.7,14.4,15.4,21.6,23.1.9.9,1.7,1.8,2.6,2.7s.9,1,1.4,1.5.9,1,1.4,1.5.5.6.8.9.3.4.5.6c.4.5.2.4,0,0,.5.8,1.2,1.6,1.7,2.4s1.2,1.8,1.7,2.7.5.9.7,1.4-.1.3-.1-.3c0,.2.2.6.3.8.1.4.3.8.4,1.3s0,.3.1.5c.2,1.2,0-.7,0,0s0,1.2,0,1.2c-.3-.2.3-1.2,0-.4s0,.3-.1.4c-.2.9.5-1,0,0s-.4.7-.6,1-.3.4-.4.5c0,0,.8-.9.3-.4s-.5.6-.8.9c-.6.7-1.3,1.3-2,1.9s-.8.7-1.2,1-.4.3-.6.5c-.8.6.8-.6,0,0s-1.8,1.3-2.7,1.9c-1.8,1.2-3.6,2.3-5.4,3.4s-3.9,2.2-5.9,3.2l3.5-.5c-10.4-2.5-20.8-5-31.2-7.5s-3-.7-4.4-1.1c-2.3-.5-5,.7-5.5,3.1s.7,4.9,3.1,5.5h0Z"/>
        <path class="cls-1" d="M171.2,154.8c-5-7.3-10-14.6-15-21.8l-9.1-13.2c-.7-1-1.4-2.1-2.1-3.1s.4,1.2.3.8-.1-.4-.2-.6c-2-7.6-4-15.3-6-22.9-3.1-11.9-6.3-23.9-9.4-35.8s-3.6-14.4-5.6-21.5,0-.2,0-.3c-.5-1.7-2-3-3.7-3.2s-3.4.6-4.5,2.1c-3.7,5.4-7.5,10.8-11.2,16.2l-1.6,2.3,3.9-2.2c-6.9-.3-13.8-.7-20.7-1s-5.2-.5-7.7-.4-3.2,1.4-4.5,2.8l-4,4.4c-2.5,2.8-5,5.5-7.5,8.3l2-1.2c-8.3,1.2-16.6,2.5-25,3.7s-2.3.4-3.5.5c-1.8.3-3.4,2.6-3.3,4.3.3,4,.8,7.9,1.5,11.8,1,5.9,2.5,12.5,6.1,17.3s4.9,4.6,7.9,6.1,6.8,3,10.4,4.2,5.6,1.8,8.4,2.5,1.7.4,2.5.6.4.1.5.1c.6,0-1.4-.8-.9-.4,1.9,1.4,4.1,2.6,6.1,3.8l5.2,3.2-2.1-5.1c-1.3,5.2-2.5,10.5-3.7,15.8-2.2,9.6-4.4,19.1-6.3,28.7s-1.7,8.3-2.2,12.6,2.3,4.6,4.5,4.5,4.2-2,4.5-4.5-.2,1.4,0,.2.1-.7.2-1.1c.1-.8.3-1.6.4-2.4.3-1.9.7-3.8,1.1-5.6.9-4.7,1.9-9.3,3-14,1.9-8.8,3.9-17.5,6-26.2s.9-3.8,1.3-5.6-.3-4-2.1-5.1c-3.5-2.2-6.9-4.3-10.4-6.5s-2-1.1-3.2-1.4c-2.3-.6-4.5-1.2-6.7-1.9-3.2-1-6.4-2.1-9.5-3.3s-.7-.1.2,0c-.2,0-.4-.2-.6-.2-.4-.2-.7-.3-1.1-.5-.8-.4-1.5-.7-2.2-1.1s-1.2-.7-1.8-1-.6-.4-.9-.6-.3-.2-.4-.3c-.7-.5.7.7.2.1s-.8-.8-1.1-1.1.6,1,0,0-.3-.5-.5-.7c-.3-.5-.6-1.1-.9-1.7s-.3-.6-.4-.9c-.3-.7.1.3.2.4,0-.2-.2-.5-.3-.7-1.1-2.8-1.8-5.8-2.4-8.7s-.6-3.1-.8-4.7-.1-.8-.2-1.2c-.2-1.2.1.9,0,0s-.2-1.2-.2-1.9c-.1-1.3-.3-2.6-.4-3.9l-3.3,4.3c6.9-1,13.7-2.1,20.6-3.1l5.4-.8c.8-.1,1.7-.2,2.5-.4,1.5-.4,2.4-1.5,3.4-2.6l4-4.4c2.5-2.8,5-5.5,7.5-8.3l-3.2,1.3c7.6.4,15.1.8,22.7,1.1l4.8.2c2.1.1,3.7-.4,5-2.3,2.1-3,4.2-6,6.3-9s4.3-6.2,6.5-9.4l-8.2-1.1c1.6,6,3.2,12,4.7,18,3.1,11.8,6.2,23.7,9.4,35.5l6.8,25.9c.4,1.6.9,2.8,1.8,4.1l7.8,11.4c5.8,8.4,11.5,16.8,17.3,25.1l.3.5c1.3,1.9,4,3,6.2,1.6s3-4.1,1.6-6.2h0Z"/>
        <path class="cls-1" d="M97.3,235.8v12.5c0,2.4,2.1,4.5,4.5,4.5h43c3,0,6,.1,8.9,0s4.4-1.7,6.3-2.6l11.8-6c10.9-5.6,21.8-11.2,32.7-16.7s13.9-6.9,20.7-10.6.2-.1.3-.2c2.1-1.1,2.9-4.2,1.6-6.2s-3.9-2.8-6.2-1.6c-7.8,4-15.7,8-23.5,12-12.5,6.4-24.9,12.8-37.4,19.2s-5.7,2.9-8.6,4.4l2.3-.6h-52l4.5,4.5v-12.5c0-2.4-2.1-4.6-4.5-4.5s-4.5,2-4.5,4.5h0Z"/>
        <path class="cls-1" d="M93.6,265.7c3.3-4.2,6.7-8.3,10-12.5s.9-1.2,1.4-1.8c.8-1,1.3-1.9,1.3-3.2s-.5-2.4-1.3-3.2-2-1.4-3.2-1.3-2.5.4-3.2,1.3c-3.3,4.2-6.7,8.3-10,12.5s-.9,1.2-1.4,1.8c-.8,1-1.3,1.9-1.3,3.2s.5,2.4,1.3,3.2,2,1.4,3.2,1.3,2.5-.4,3.2-1.3h0Z"/>
      </g>
    </g>
  </g>
</svg>