<?xml version="1.0" encoding="UTF-8"?><svg id="Layer_2" xmlns="http://www.w3.org/2000/svg" viewBox="0 0 300 300"><defs><style>.cls-1{fill:#ae31ff;}</style></defs><path class="cls-1" d="M78.4,128.44c0,1.71-.07,3.42-.22,5.13-.07.83-.16,1.65-.27,2.48.12-.87.02-.15-.01.02-.09.53-.17,1.06-.27,1.59-.54,2.98-1.34,5.92-2.44,8.75-.07.17-.54,1.28-.08.23-.14.32-.28.63-.42.95-.24.51-.49,1.02-.75,1.52-.64,1.23-1.36,2.42-2.17,3.55l-.18.25c-.29.39-.24.33.15-.19-.06.19-.34.42-.47.57-.34.4-.7.8-1.07,1.18-.39.4-.79.78-1.22,1.14-.36.31-.86.39.07-.03-.3.13-.58.42-.86.6-.36.23-.72.45-1.1.65-.22.12-.45.22-.68.33-.82.4,1.03-.3.16-.08-.47.12-.93.31-1.4.41-.05.01-.71.15-.71.14-.01-.05,1.34-.08.23-.05-.49.01-.97.01-1.46,0-1.05-.02.26-.07.23.05,0,.02-.67-.13-.71-.14-.44-.1-.86-.24-1.29-.37-.56-.17-.42.13.27.14-.25,0-.68-.32-.9-.43-.45-.24-.89-.51-1.32-.79-.2-.14-.42-.36-.64-.46.93.42.44.34.07.03-.86-.74-1.65-1.56-2.38-2.43-.3-.36-.81-.56-.04-.03-.2-.14-.4-.54-.54-.74-.3-.43-.59-.87-.86-1.31-.76-1.23-1.43-2.51-2.02-3.82-.08-.17-.52-1.26-.1-.21-.09-.22-.18-.44-.26-.66-.26-.68-.51-1.36-.74-2.05-.5-1.5-.92-3.03-1.27-4.57-.16-.71-.3-1.42-.43-2.13-.07-.4-.14-.79-.2-1.19-.02-.12-.21-1.46-.07-.42-.22-1.66-.36-3.34-.43-5.01-.15-3.4-.02-6.82.43-10.19-.14,1.04.05-.29.07-.42.06-.4.13-.79.2-1.19.12-.65.25-1.29.39-1.94.36-1.61.79-3.2,1.31-4.76.23-.69.47-1.37.74-2.05.09-.22.18-.44.26-.66-.42,1.05.02-.03.1-.21.59-1.31,1.26-2.59,2.02-3.82.28-.45.56-.88.86-1.31.14-.2.34-.61.54-.74-.77.53-.26.33.04-.03.73-.87,1.51-1.69,2.38-2.43.36-.31.86-.39-.07.03.22-.1.44-.32.64-.46.43-.29.86-.55,1.32-.79.22-.12.45-.22.68-.33.79-.39-.85.26-.27.12.51-.12,1-.34,1.52-.46.05-.01.71-.16.71-.14.03.12-1.29.07-.23.05.49-.01.97-.01,1.46,0,1.2.03-.93-.26.25.03.55.14,1.09.32,1.64.46.88.23-.98-.48-.16-.08.3.15.6.29.9.45.45.25.89.53,1.31.82.52.36.33.6-.06-.07.15.25.6.51.83.71.49.44.95.91,1.39,1.4.13.14.26.29.38.44.13.15.25.3.38.45.3.38.25.31-.15-.2.49.34.91,1.29,1.23,1.79.77,1.21,1.44,2.48,2.05,3.77.15.31.29.63.42.95-.47-1.08.13.37.21.57.3.8.58,1.6.84,2.42.5,1.59.91,3.2,1.25,4.83.17.85.33,1.7.46,2.56.04.23.16,1.13.04.22.07.55.13,1.09.19,1.64.2,1.98.29,3.97.3,5.96,0,2.35,2.06,4.61,4.5,4.5s4.51-1.98,4.5-4.5c-.03-7.16-1.11-14.52-3.85-21.17-2.33-5.64-5.65-11.04-10.9-14.4-4.87-3.11-10.74-3.28-15.89-.81s-8.77,7.45-11.12,12.39c-3.15,6.63-4.68,13.87-5.02,21.19s.53,14.88,2.95,21.8c1.96,5.57,4.92,11.31,9.64,15.04,4.42,3.49,10.14,5.26,15.65,3.32s9.65-6.39,12.45-11.43c3.47-6.25,5.16-13.31,5.82-20.38.17-1.84.25-3.69.26-5.54,0-2.35-2.08-4.61-4.5-4.5s-4.49,1.98-4.5,4.5Z"/><path class="cls-1" d="M132.64,80.22c0,1.71-.07,3.42-.22,5.13-.07.83-.16,1.65-.27,2.48.12-.87.02-.15-.01.02-.09.53-.17,1.06-.27,1.59-.54,2.98-1.34,5.92-2.44,8.75-.07.17-.54,1.28-.08.23-.14.32-.28.63-.42.95-.24.51-.49,1.02-.75,1.52-.64,1.23-1.36,2.42-2.17,3.55l-.18.25c-.29.39-.24.33.15-.19-.06.19-.34.42-.47.57-.34.4-.7.8-1.07,1.18-.39.4-.79.78-1.22,1.14-.36.31-.86.39.07-.03-.3.13-.58.42-.86.6-.36.23-.72.45-1.1.65-.22.12-.45.22-.68.33-.82.4,1.03-.3.16-.08-.47.12-.93.31-1.4.41-.05.01-.71.15-.71.14-.01-.05,1.34-.08.23-.05-.49.01-.97.01-1.46,0-1.05-.02.26-.07.23.05,0,.02-.67-.13-.71-.14-.44-.1-.86-.24-1.29-.37-.56-.17-.42.13.27.14-.25,0-.68-.32-.9-.43-.45-.24-.89-.51-1.32-.79-.2-.14-.42-.36-.64-.46.93.42.44.34.07.03-.86-.74-1.65-1.56-2.38-2.43-.3-.36-.81-.56-.04-.03-.2-.14-.4-.54-.54-.74-.3-.43-.59-.87-.86-1.31-.76-1.23-1.43-2.51-2.02-3.82-.08-.17-.52-1.26-.1-.21-.09-.22-.18-.44-.26-.66-.26-.68-.51-1.36-.74-2.05-.5-1.5-.92-3.03-1.27-4.57-.16-.71-.3-1.42-.43-2.13-.07-.4-.14-.79-.2-1.19-.02-.12-.21-1.46-.07-.42-.22-1.66-.36-3.34-.43-5.01-.15-3.4-.02-6.82.43-10.19-.14,1.04.05-.29.07-.42.06-.4.13-.79.2-1.19.12-.65.25-1.29.39-1.94.36-1.61.79-3.2,1.31-4.76.23-.69.47-1.37.74-2.05.09-.22.18-.44.26-.66-.42,1.05.02-.03.1-.21.59-1.31,1.26-2.59,2.02-3.82.28-.45.56-.88.86-1.31.14-.2.34-.61.54-.74-.77.53-.26.33.04-.03.73-.87,1.51-1.69,2.38-2.43.36-.31.86-.39-.07.03.22-.1.44-.32.64-.46.43-.29.86-.55,1.32-.79.22-.12.45-.22.68-.33.79-.39-.85.26-.27.12.51-.12,1-.34,1.52-.46.05-.01.71-.16.71-.14.03.12-1.29.07-.23.05.49-.01.97-.01,1.46,0,1.2.03-.93-.26.25.03.55.14,1.09.32,1.64.46.88.23-.98-.48-.16-.08.3.15.6.29.9.45.45.25.89.53,1.31.82.52.36.33.6-.06-.07.15.25.6.51.83.71.49.44.95.91,1.39,1.4.13.14.26.29.38.44.13.15.25.3.38.45.3.38.25.31-.15-.2.49.34.91,1.29,1.23,1.79.77,1.21,1.44,2.48,2.05,3.77.15.31.29.63.42.95-.47-1.08.13.37.21.57.3.8.58,1.6.84,2.42.5,1.59.91,3.2,1.25,4.83.17.85.33,1.7.46,2.56.04.23.16,1.13.04.22.07.55.13,1.09.19,1.64.2,1.98.29,3.97.3,5.96,0,2.35,2.06,4.61,4.5,4.5s4.51-1.98,4.5-4.5c-.03-7.16-1.11-14.52-3.85-21.17-2.33-5.64-5.65-11.04-10.9-14.4-4.87-3.11-10.74-3.28-15.89-.81s-8.77,7.45-11.12,12.39c-3.15,6.63-4.68,13.87-5.02,21.19s.53,14.88,2.95,21.8c1.96,5.57,4.92,11.31,9.64,15.04,4.42,3.49,10.14,5.26,15.65,3.32s9.65-6.39,12.45-11.43c3.47-6.25,5.16-13.31,5.82-20.38.17-1.84.25-3.69.26-5.54,0-2.35-2.08-4.61-4.5-4.5s-4.49,1.98-4.5,4.5Z"/><path class="cls-1" d="M194.22,80.22c0,1.71-.07,3.42-.22,5.13-.07.83-.16,1.65-.27,2.48.12-.87.02-.15-.01.02-.09.53-.17,1.06-.27,1.59-.54,2.98-1.34,5.92-2.44,8.75-.07.17-.54,1.28-.08.23-.14.32-.28.63-.42.95-.24.51-.49,1.02-.75,1.52-.64,1.23-1.36,2.42-2.17,3.55l-.18.25c-.29.39-.24.33.15-.19-.06.19-.34.42-.47.57-.34.4-.7.8-1.07,1.18-.39.4-.79.78-1.22,1.14-.36.31-.86.39.07-.03-.3.13-.58.42-.86.6-.36.23-.72.45-1.1.65-.22.12-.45.22-.68.33-.82.4,1.03-.3.16-.08-.47.12-.93.31-1.4.41-.05.01-.71.15-.71.14-.01-.05,1.34-.08.23-.05-.49.01-.97.01-1.46,0-1.05-.02.26-.07.23.05,0,.02-.67-.13-.71-.14-.44-.1-.86-.24-1.29-.37-.56-.17-.42.13.27.14-.25,0-.68-.32-.9-.43-.45-.24-.89-.51-1.32-.79-.2-.14-.42-.36-.64-.46.93.42.44.34.07.03-.86-.74-1.65-1.56-2.38-2.43-.3-.36-.81-.56-.04-.03-.2-.14-.4-.54-.54-.74-.3-.43-.59-.87-.86-1.31-.76-1.23-1.43-2.51-2.02-3.82-.08-.17-.52-1.26-.1-.21-.09-.22-.18-.44-.26-.66-.26-.68-.51-1.36-.74-2.05-.5-1.5-.92-3.03-1.27-4.57-.16-.71-.3-1.42-.43-2.13-.07-.4-.14-.79-.2-1.19-.02-.12-.21-1.46-.07-.42-.22-1.66-.36-3.34-.43-5.01-.15-3.4-.02-6.82.43-10.19-.14,1.04.05-.29.07-.42.06-.4.13-.79.2-1.19.12-.65.25-1.29.39-1.94.36-1.61.79-3.2,1.31-4.76.23-.69.47-1.37.74-2.05.09-.22.18-.44.26-.66-.42,1.05.02-.03.1-.21.59-1.31,1.26-2.59,2.02-3.82.28-.45.56-.88.86-1.31.14-.2.34-.61.54-.74-.77.53-.26.33.04-.03.73-.87,1.51-1.69,2.38-2.43.36-.31.86-.39-.07.03.22-.1.44-.32.64-.46.43-.29.86-.55,1.32-.79.22-.12.45-.22.68-.33.79-.39-.85.26-.27.12.51-.12,1-.34,1.52-.46.05-.01.71-.16.71-.14.03.12-1.29.07-.23.05.49-.01.97-.01,1.46,0,1.2.03-.93-.26.25.03.55.14,1.09.32,1.64.46.88.23-.98-.48-.16-.08.3.15.6.29.9.45.45.25.89.53,1.31.82.52.36.33.6-.06-.07.15.25.6.51.83.71.49.44.95.91,1.39,1.4.13.14.26.29.38.44.13.15.25.3.38.45.3.38.25.31-.15-.2.49.34.91,1.29,1.23,1.79.77,1.21,1.44,2.48,2.05,3.77.15.31.29.63.42.95-.47-1.08.13.37.21.57.3.8.58,1.6.84,2.42.5,1.59.91,3.2,1.25,4.83.17.85.33,1.7.46,2.56.04.23.16,1.13.04.22.07.55.13,1.09.19,1.64.2,1.98.29,3.97.3,5.96,0,2.35,2.06,4.61,4.5,4.5s4.51-1.98,4.5-4.5c-.03-7.16-1.11-14.52-3.85-21.17-2.33-5.64-5.65-11.04-10.9-14.4-4.87-3.11-10.74-3.28-15.89-.81s-8.77,7.45-11.12,12.39c-3.15,6.63-4.68,13.87-5.02,21.19-.34,7.3.53,14.88,2.95,21.8,1.96,5.57,4.92,11.31,9.64,15.04,4.42,3.49,10.14,5.26,15.65,3.32s9.65-6.39,12.45-11.43c3.47-6.25,5.16-13.31,5.82-20.38.17-1.84.25-3.69.26-5.54,0-2.35-2.08-4.61-4.5-4.5s-4.49,1.98-4.5,4.5Z"/><path class="cls-1" d="M250.44,137.53c0,1.71-.07,3.42-.22,5.13-.07.83-.16,1.65-.27,2.48.12-.87.02-.15-.01.02-.09.53-.17,1.06-.27,1.59-.54,2.98-1.34,5.92-2.44,8.75-.07.17-.54,1.28-.08.23-.14.32-.28.63-.42.95-.24.51-.49,1.02-.75,1.52-.64,1.23-1.36,2.42-2.17,3.55l-.18.25c-.29.39-.24.33.15-.19-.06.19-.34.42-.47.57-.34.4-.7.8-1.07,1.18-.39.4-.79.78-1.22,1.14-.36.31-.86.39.07-.03-.3.13-.58.42-.86.6-.36.23-.72.45-1.1.65-.22.12-.45.22-.68.33-.82.4,1.03-.3.16-.08-.47.12-.93.31-1.4.41-.05.01-.71.15-.71.14-.01-.05,1.34-.08.23-.05-.49.01-.97.01-1.46,0-1.05-.02.26-.07.23.05,0,.02-.67-.13-.71-.14-.44-.1-.86-.24-1.29-.37-.56-.17-.42.13.27.14-.25,0-.68-.32-.9-.43-.45-.24-.89-.51-1.32-.79-.2-.14-.42-.36-.64-.46.93.42.44.34.07.03-.86-.74-1.65-1.56-2.38-2.43-.3-.36-.81-.56-.04-.03-.2-.14-.4-.54-.54-.74-.3-.43-.59-.87-.86-1.31-.76-1.23-1.43-2.51-2.02-3.82-.08-.17-.52-1.26-.1-.21-.09-.22-.18-.44-.26-.66-.26-.68-.51-1.36-.74-2.05-.5-1.5-.92-3.03-1.27-4.57-.16-.71-.3-1.42-.43-2.13-.07-.4-.14-.79-.2-1.19-.02-.12-.21-1.46-.07-.42-.22-1.66-.36-3.34-.43-5.01-.15-3.4-.02-6.82.43-10.19-.14,1.04.05-.29.07-.42.06-.4.13-.79.2-1.19.12-.65.25-1.29.39-1.94.36-1.61.79-3.2,1.31-4.76.23-.69.47-1.37.74-2.05.09-.22.18-.44.26-.66-.42,1.05.02-.03.1-.21.59-1.31,1.26-2.59,2.02-3.82.28-.45.56-.88.86-1.31.14-.2.34-.61.54-.74-.77.53-.26.33.04-.03.73-.87,1.51-1.69,2.38-2.43.36-.31.86-.39-.07.03.22-.1.44-.32.64-.46.43-.29.86-.55,1.32-.79.22-.12.45-.22.68-.33.79-.39-.85.26-.27.12.51-.12,1-.34,1.52-.46.05-.01.71-.16.71-.14.03.12-1.29.07-.23.05.49-.01.97-.01,1.46,0,1.2.03-.93-.26.25.03.55.14,1.09.32,1.64.46.88.23-.98-.48-.16-.08.3.15.6.29.9.45.45.25.89.53,1.31.82.52.36.33.6-.06-.07.15.25.6.51.83.71.49.44.95.91,1.39,1.4.13.14.26.29.38.44.13.15.25.3.38.45.3.38.25.31-.15-.2.49.34.91,1.29,1.23,1.79.77,1.21,1.44,2.48,2.05,3.77.15.31.29.63.42.95-.47-1.08.13.37.21.57.3.8.58,1.6.84,2.42.5,1.59.91,3.2,1.25,4.83.17.85.33,1.7.46,2.56.04.23.16,1.13.04.22.07.55.13,1.09.19,1.64.2,1.98.29,3.97.3,5.96,0,2.35,2.06,4.61,4.5,4.5s4.51-1.98,4.5-4.5c-.03-7.16-1.11-14.52-3.85-21.17-2.33-5.64-5.65-11.04-10.9-14.4-4.87-3.11-10.74-3.28-15.89-.81s-8.77,7.45-11.12,12.39c-3.15,6.63-4.68,13.87-5.02,21.19-.34,7.3.53,14.88,2.95,21.8,1.96,5.57,4.92,11.31,9.64,15.04,4.42,3.49,10.14,5.26,15.65,3.32s9.65-6.39,12.45-11.43c3.47-6.25,5.16-13.31,5.82-20.38.17-1.84.25-3.69.26-5.54,0-2.35-2.08-4.61-4.5-4.5s-4.49,1.98-4.5,4.5Z"/><path class="cls-1" d="M153.97,232.3c-8.51-.85-17.64.15-25.55,3.5-5.99,2.53-11.15,6.46-16.8,9.62-.68.38-1.37.75-2.07,1.1-.3.15-.6.29-.9.44-.34.16-1.35.67-.44.22-1.34.67-2.91,1.08-4.36,1.41-.37.08-.75.15-1.13.22-.14.03-.34.09-.49.08,0,0,.91-.07.38-.06-.84.02-1.67.13-2.51.11-.34,0-.69-.02-1.03-.05-.16-.01-1.4-.18-.8-.07s-.01-.01-.11-.03c-.24-.05-.48-.09-.72-.14-.49-.1-.97-.23-1.45-.36-.35-.1-.71-.21-1.06-.33-.23-.08-.45-.16-.68-.25-.08-.03-.65-.26-.13-.04s-.62-.3-.75-.36c-.36-.18-.72-.38-1.07-.58-.69-.4-1.34-.86-2-1.32-.41-.29.21.16.24.18-.17-.15-.35-.29-.52-.43-.3-.26-.59-.52-.88-.79-.57-.54-1.12-1.12-1.63-1.72-.22-.26-.43-.52-.65-.78-.41-.49.44.63.08.1-.13-.19-.27-.37-.4-.55-.93-1.32-1.75-2.71-2.49-4.14-.35-.68-.67-1.36-.99-2.05-.1-.21-.19-.43-.28-.64.02.04.3.74.11.26-.17-.44-.35-.87-.52-1.32-.57-1.51-1.09-3.03-1.48-4.6-.21-.83-.38-1.66-.52-2.5-.07-.39-.16-1.07-.06-.26-.06-.49-.12-.98-.16-1.48-.16-1.76-.2-3.53-.15-5.3s.21-3.64.42-5.45c.1-.89-.08.51.05-.38.07-.46.14-.92.22-1.38.17-.99.35-1.98.56-2.97.76-3.66,1.75-7.26,2.9-10.81s2.45-7.03,3.84-10.48c.31-.77.63-1.53.95-2.3.03-.07.28-.65.07-.16-.23.53.08-.2.14-.32.17-.4.34-.79.51-1.19.68-1.57,1.37-3.13,2.08-4.69,1.69-3.69,3.54-7.3,5.66-10.76,1.06-1.72,2.18-3.41,3.37-5.04.26-.35.51-.7.78-1.04-.43.55.37-.46.5-.62.68-.84,1.39-1.66,2.12-2.46,1.16-1.27,2.39-2.49,3.68-3.64.62-.54,1.25-1.06,1.89-1.57.39-.32-.19.15-.22.17.14-.1.28-.21.42-.31.37-.28.75-.55,1.13-.81,1.33-.92,2.72-1.77,4.14-2.55.66-.36,1.33-.71,2-1.04.36-.18.73-.35,1.1-.52.16-.07.32-.14.47-.22.12-.05,1.03-.45.42-.19-.53.23.43-.17.59-.23.38-.15.76-.29,1.14-.44.76-.28,1.53-.55,2.31-.79,1.56-.5,3.14-.92,4.73-1.29s3.22-.65,4.85-.9c.1-.02.7-.1.1-.02-.64.08.12-.01.28-.03.35-.04.7-.08,1.06-.12.88-.09,1.77-.17,2.65-.22,3.32-.21,6.66-.19,9.99.05.77.06,1.54.12,2.31.2.41.04.83.09,1.24.14.18.02.35.05.53.07.67.07-.8-.12-.14-.02,1.64.24,3.28.51,4.91.84,3.21.66,6.38,1.51,9.48,2.56,1.47.5,2.91,1.04,4.34,1.62.76.31,0,0-.13-.06.16.07.31.13.47.2.37.16.74.33,1.11.49.79.36,1.58.73,2.37,1.12,3.08,1.51,6.07,3.22,8.94,5.11,1.41.93,2.8,1.9,4.15,2.91.29.22.58.43.86.65-.71-.54.11.09.36.3.65.52,1.3,1.06,1.94,1.6,2.54,2.16,4.95,4.47,7.23,6.91,1.13,1.22,2.23,2.46,3.29,3.74.49.59.98,1.19,1.46,1.8.15.19.29.37.44.56-.03-.03-.46-.61-.16-.21.28.38.57.76.85,1.14,3.93,5.32,7.29,11.06,10.08,17.05.33.71.65,1.42.96,2.13.17.38.33.77.5,1.16-.39-.91.13.32.24.59.61,1.51,1.19,3.02,1.73,4.56,1.13,3.19,2.12,6.43,2.96,9.71s1.52,6.5,2.08,9.79c.14.84.28,1.68.4,2.52.05.36.1.72.15,1.08-.16-1.12.05.45.09.74.22,2,.29,4.02.12,6.03-.02.21-.05.43-.06.64-.06.73.15-.63-.02.07-.11.48-.18.98-.3,1.46-.1.41-.22.82-.35,1.23-.09.27-.18.54-.28.8-.11.3-.25.52-.04.1-.4.79-.81,1.57-1.31,2.31-.07.1-.55.79-.24.36.28-.39-.12.14-.15.18-.35.41-.71.82-1.08,1.21-.61.63-1.27,1.23-1.94,1.8-.16.13-.32.26-.47.39.6-.49.06-.05-.06.04-.44.32-.88.63-1.34.93-1.64,1.09-3.35,2.06-5.13,2.91-.19.09-1.38.61-.69.33-.46.19-.92.37-1.39.54-.92.34-1.86.63-2.8.88-.87.23-1.75.43-2.64.59-.27.05-.54.09-.82.13.08-.01.7-.07.17-.03s-1.09.11-1.64.14c-.89.05-1.79.06-2.68.02-.48-.02-.97-.05-1.45-.1-.21-.02-.41-.04-.62-.07.67.08.1,0-.25-.05-1.9-.33-3.76-.87-5.55-1.59.63.25-.57-.27-.76-.36-.48-.23-.95-.47-1.42-.72-.94-.49-1.86-1.02-2.77-1.55-1.83-1.07-3.62-2.21-5.43-3.32-3.82-2.34-7.76-4.41-11.99-5.92s-8.31-2.27-12.61-2.74c-2.35-.26-4.6,2.25-4.5,4.5.12,2.66,1.98,4.23,4.5,4.5.3.03.6.07.9.1-.09-.01-.61-.09-.08-.01s1.04.16,1.56.25c1.11.2,2.21.43,3.31.7,2.12.53,4.19,1.21,6.22,2.01.09.04.79.34.18.07.21.09.41.18.62.28.48.22.96.44,1.43.68,1.02.5,2.01,1.05,3,1.61,1.91,1.09,3.76,2.26,5.63,3.41,3.89,2.39,7.87,4.74,12.28,6.05,4.1,1.22,8.5,1.58,12.74,1.03,8.55-1.1,17.59-5.15,23.41-11.66,3.3-3.68,5.15-7.98,5.76-12.86.53-4.23-.05-8.42-.71-12.6-2.19-13.98-6.86-27.7-14.01-39.93-7.25-12.42-17.16-23.23-29.18-31.17-12.02-7.94-25.95-12.6-40.31-13.61s-28.75,1.77-40.33,9.84c-13.65,9.52-20.92,24.85-27,39.82-2.93,7.21-5.47,14.62-6.98,22.27s-2.12,15.94-.19,23.72c1.71,6.88,5.13,14.03,10.2,19.06,5.35,5.31,13.13,8.34,20.69,7.39,7.15-.89,13.2-4.52,19.18-8.31,2.79-1.77,5.6-3.54,8.6-4.97.31-.15.61-.28.92-.42.75-.34-.01,0-.14.06.16-.06.31-.13.47-.19.82-.32,1.66-.61,2.51-.86,2.18-.65,4.41-1.16,6.66-1.53.31-.05.62-.1.93-.14.53-.08.08,0-.03,0,.55-.06,1.09-.12,1.64-.17,1.1-.1,2.2-.16,3.3-.19,2.28-.06,4.56.03,6.83.26s4.6-2.24,4.5-4.5c-.12-2.64-1.98-4.25-4.5-4.5Z"/></svg>