<?xml version="1.0" encoding="UTF-8"?><svg id="Layer_1" xmlns="http://www.w3.org/2000/svg" viewBox="0 0 300 300"><defs><style>.cls-1{fill:#ae31ff;}</style></defs><path class="cls-1" d="M17.23,117.73c3.79,3.52,7.59,7.05,11.38,10.57,1.63,1.51,2.98,3.04,5.42,3.09,1.8.04,3.6,0,5.4,0h74.36c2,0,4.02.07,6.02,0,.6-.02.56.24-.91-.16-1.31-.36-1.07-.47-.34-.12,1.18.57,2.24,1.28,3.33,1.99.75.49-.83-.7-.13-.11.13.11.26.21.39.32.33.28.65.58.96.89.18.18.67.92.9.99-.46-.15-.51-.75-.13-.15.17.27.36.53.52.81.09.16.18.32.27.49.47.91-.12.09,0-.05-.06.06.36,1.24.4,1.38.19.69-.19-.29-.03-.32.01,0,.05.86.05.92,0,.25,0,.49-.02.74-.01.24-.03.48-.06.72.08-.55.09-.66.03-.33-.14.55-.24,1.11-.41,1.65-.08.26-.18.52-.27.78-.29.83.09-.13.08-.19.02.36-.52,1.05-.71,1.37-.29.5-.62.98-.95,1.46-.55.82.67-.78.05-.06-.11.13-.21.26-.32.39-.25.29-.51.58-.78.86-.44.46-.92.89-1.4,1.31-.37.32-1.01.55.47-.35-.54.33.97-.36.94-.36-.14.01-.3.08-.44.11-.87.21-1.74.45-2.61.68-3.06.8-6.12,1.6-9.18,2.39-2.73.71-5.46,1.43-8.2,2.14-.33.09-.67.17-1,.26-.86.23.15-.24.52-.07-.62-.29-2.02-.09-2.7-.11-1.05-.02-2.1-.02-3.14.05-5.17.33-10.54,1.98-13.28,6.76-1.61,2.81-2.01,6.15-1.88,9.34s.5,6.44.83,9.63c.67,6.51,1.56,13.07,3.5,19.34,1.83,5.94,4.61,11.57,8.15,16.67s7.33,9.4,11.56,13.59,8.78,7.92,13.15,11.92c1.03.94,2.04,1.91,3.01,2.91.51.53,1.01,1.06,1.5,1.61.29.33.58.66.86,1,0,.01.86,1.09.39.47.82,1.09,1.59,2.23,2.3,3.39.31.51.6,1.02.88,1.54.21.39.85,1.29.84,1.72.01-.43-.3-.77-.12-.26.09.26.19.52.28.78.13.4.25.81.34,1.22.03.15.05.31.09.46.23.84-.04-1.15-.04-.31,0,.37,0,.76.02,1.13.05.87.34-1.2,0-.08-.07.22-.44,1.26-.07.38s-.05.01-.16.22c-.23.44-.58.4.31-.36-.12.1-.23.27-.34.39-.19.2-.46.37-.64.59.7-.85.78-.54.33-.28-.11.06-.21.13-.31.2-.27.16-.56.29-.84.44-.67.37.96-.36.44-.18-.22.08-.44.17-.67.25-.68.23-1.39.41-2.09.55-.38.08-.76.13-1.13.2-.65.12.46-.17.49-.06,0-.02-.77.08-.84.09-3.63.34-7.31.11-10.92-.33-.18-.02-.36-.04-.53-.07-.98-.12,1.11.16.14.02-.44-.06-.87-.12-1.31-.19-.73-.12-1.43-.29-2.12-.53-.17-.06-.34-.13-.52-.19-.79-.28.86.41.33.14-.36-.19-.73-.34-1.09-.53-.82-.42-1.62-.89-2.4-1.39s-1.61-1.06-2.38-1.63c-.39-.28-.88-.56-1.22-.91.8.83.15.12-.07-.06-.25-.2-.5-.39-.74-.59-1.79-1.44-3.51-2.96-5.21-4.5-6.2-5.66-12.11-11.71-18.03-17.66-4.41-4.44-8.64-9.07-12.65-13.88s-7.02-8.72-10.71-14c-3.33-4.76-6.21-9.82-9.59-14.53-3.59-5-8.02-9.41-14.13-11.08s-12.74-.53-18.92.71c-2.31.46-3.85,3.34-3.14,5.54.79,2.46,3.06,3.64,5.54,3.14,1.45-.29,2.9-.58,4.36-.81.27-.04,1.8-.25,1.01-.16.88-.1,1.76-.19,2.65-.24,1.32-.07,2.61-.02,3.93.05s-.81-.21.51.07c.28.06.56.11.84.17.78.17,1.51.44,2.27.67.71.22-.74-.41.28.12.22.12.45.22.67.34.55.3,1.08.63,1.59.98.2.14.41.29.6.44-.74-.56-.07-.04.1.12.52.45,1.02.92,1.5,1.41.44.45.86.92,1.27,1.4.16.19.32.39.49.59.79.94-.32-.46.12.14.8,1.09,1.58,2.19,2.32,3.32,3.06,4.68,6,9.41,9.25,13.96,3.52,4.92,7.22,9.71,11.11,14.34,6.34,7.55,13.36,14.39,20.29,21.37,6.03,6.07,12.11,12.16,19.05,17.21,2.86,2.08,6.12,4.17,9.62,4.96s7.44,1.1,11.11,1.19c6.23.15,14.99-.61,18.13-7.02,1.96-4,1.03-8.28-.72-12.16-2.25-4.99-5.89-9.37-9.82-13.12s-8.53-7.45-12.63-11.37c-1.92-1.84-3.8-3.72-5.6-5.68-.94-1.03-1.87-2.07-2.76-3.14-.4-.48-.8-.96-1.19-1.45-.22-.27-.43-.54-.65-.82.47.61-.19-.26-.31-.41-1.61-2.16-3.11-4.41-4.44-6.75-.65-1.14-1.26-2.3-1.83-3.48-.3-.62-.59-1.25-.86-1.89.07.17.3.74-.03-.08-.17-.43-.34-.86-.5-1.29-1.07-2.88-1.89-5.84-2.54-8.84-.29-1.35-.54-2.72-.77-4.08-.13-.76-.24-1.52-.35-2.29-.02-.11-.12-.88-.03-.18-.06-.46-.12-.92-.17-1.38-.37-3.07-.65-6.15-.92-9.23-.12-1.36-.25-2.72-.29-4.09-.02-.75,0-1.5.05-2.25.07-.94.05-.33.02-.14.1-.5.23-.98.37-1.46.24-.82-.14-.16-.05.04-.02-.04.29-.55.28-.54.12-.2.29-.4.39-.62.24-.51-.75.74-.08.14.14-.12.26-.27.39-.39s.58-.73.18-.17c-.35.5-.01.03.23-.11s.49-.26.73-.4c.69-.38-.23.15-.31.11.08.04.7-.25.8-.28.41-.13.84-.24,1.26-.33.24-.05.48-.09.72-.14.64-.13-.11.2-.31.03.14.11,1.44-.14,1.65-.15,2.75-.16,5.52.34,8.2-.35,2.42-.63,4.83-1.26,7.25-1.89,4.5-1.17,9.11-2.14,13.54-3.53,2.81-.88,5.3-4.22,6.82-6.52,2.7-4.08,4.08-9.66,2.43-14.4-1.44-4.15-4.6-7.31-8.27-9.59-1.62-1-3.43-2.02-5.36-2.06-9.36-.18-18.74,0-28.1,0h-57.94l3.18,1.32c-4.43-4.11-8.86-8.23-13.29-12.34-1.73-1.6-4.68-1.84-6.36,0-1.6,1.74-1.84,4.65,0,6.36h0Z"/><path class="cls-1" d="M87.44,203.42c9.08,4.2,18.16,8.41,27.25,12.61,4.51,2.09,9.03,4.18,13.54,6.27.37.17.74.35,1.11.52s.76.32,1.16.49c-1.89-.8-1.29-.58-.91-.37.47.27.33.63-.6-.49.11.13.28.26.4.37.78.72-.66-1.08-.23-.31.15.27.3.54.45.81.37.67-.45-1.31-.17-.39.07.23.15.46.21.69.07.26.13.52.18.79.02.1.03.19.05.29.19.91-.09-.94-.06-.51.08,1.59.12,3.12-.04,4.7-.02.16-.04.33-.06.49-.08.78.18-1.17-.02.11-.08.52-.18,1.04-.28,1.55-.24,1.23-.54,2.45-.87,3.66-.89,3.28-2.04,6.48-3.3,9.64-.87,2.19.95,5.04,3.14,5.54,2.6.59,4.6-.79,5.54-3.14,1.97-4.96,3.75-10.09,4.53-15.39.49-3.33.76-6.76-.11-10.06-.49-1.86-1.41-3.7-2.81-5.05-.44-.43-.95-.82-1.49-1.12-.59-.33-2.27-1.16-.08-.04-.07-.04-.15-.07-.23-.1-10.02-4.75-20.13-9.32-30.19-13.98l-11.56-5.35c-2.13-.99-4.95-.67-6.16,1.61-1.05,1.99-.67,5.1,1.61,6.16h0Z"/><path class="cls-1" d="M250.75,174.01c-5.03,5.76-10.07,11.51-15.1,17.27-2.52,2.88-5.03,5.76-7.55,8.63l-1.81,2.06c-.24.27-.54.54-.74.84-.42.64.11,0,.52-.12l1.29-.02c.49.22.51.2.05-.06.11-.09.44.43-.02-.06-.68-.72-1.44-1.39-2.17-2.07-8.85-8.18-19.13-13.95-30.38-18.11-5.26-1.95-10.62-3.57-15.97-5.23-2.87-.89-5.74-1.79-8.59-2.74-1.38-.46-2.76-.91-4.11-1.44.87.34.07.03-.14-.07-.29-.13-.58-.26-.87-.4-.82-.38-1.62-.79-2.43-1.19-5.87-2.93-12.03-5.73-18.72-3.94-6.76,1.81-11.13,7.67-13.31,14.01-1.56,4.55-2.23,9.66-.9,14.36,1.1,3.88,3.52,7.34,6.62,9.89,6.58,5.4,14.87,7.94,22.71,10.93.88.34,1.77.68,2.64,1.04.37.15,1.7.52.32.13.54.15,1.07.46,1.58.7,2.65,1.22,5.25,2.58,7.82,3.97,5.69,3.06,11.23,6.43,16.46,10.23.7.51,1.39,1.02,2.07,1.54-.7-.54.42.33.45.35.23.18.45.36.67.54,1.34,1.08,2.66,2.19,3.94,3.34,2.47,2.2,4.81,4.53,7.03,6.98,4.4,4.86,8.4,10.1,13.2,14.58,4.45,4.15,9.68,7.91,15.69,9.33,4.98,1.18,10.2.74,14.97-1.05,9.59-3.6,17.22-10.67,26.09-15.59,1.02-.57,2.05-1.1,3.1-1.6.55-.26,1.1-.53,1.66-.75-1.11.43-.05.03.15-.05.31-.12.62-.24.93-.35,2.2-.81,3.93-3.09,3.14-5.54-.7-2.16-3.17-4.01-5.54-3.14-9.7,3.55-17.44,10.24-26.22,15.45-.97.58-1.96,1.13-2.97,1.65-.45.23-.9.45-1.36.66-.27.13-.54.25-.82.37-.82.37.89-.33-.02,0-1,.37-2,.74-3.03,1.02-.46.12-.93.24-1.4.33-.28.06-.56.1-.84.16-.81.16,1.08-.1-.22.03-.96.09-1.92.12-2.88.07-.29-.01-.59-.04-.88-.06-1.1-.1.02-.04.01.01,0,0-1.7-.34-1.8-.37-.51-.13-1.02-.28-1.52-.45-.31-.1-.61-.22-.92-.33-1.07-.37.88.42-.17-.07-1.21-.56-2.38-1.19-3.51-1.91-.67-.43-1.33-.89-1.97-1.35-.7-.5-.24-.18-.09-.06-.34-.26-.67-.53-1-.81-1.31-1.09-2.56-2.25-3.76-3.45-2.22-2.22-4.28-4.58-6.33-6.96-4.22-4.91-8.45-9.73-13.34-13.98-9.55-8.29-20.58-15.11-32.04-20.42-3.79-1.76-7.72-3.17-11.63-4.64-1.83-.69-3.65-1.39-5.46-2.13-.9-.37.99.43.1.04-.24-.11-.48-.21-.72-.31-.4-.18-.79-.35-1.18-.54-.92-.43-1.84-.88-2.74-1.37-.76-.41-1.51-.84-2.24-1.31-.37-.24-.74-.48-1.1-.73-.16-.11-.32-.23-.48-.34-.1-.07-.19-.14-.28-.21-.37-.28-.25-.19.35.27-.17.09-1.73-1.53-1.88-1.68-.26-.27-.52-.54-.76-.82-.06-.07-.35-.51-.43-.51.39.03.62.87.17.2s-.87-1.36-1.25-2.09c-.21-.4-.19-.91.09.26-.04-.18-.14-.35-.2-.52-.17-.47-.31-.94-.43-1.42-.09-.38-.16-.77-.24-1.15-.18-.89.08,1.16.04.23,0-.21-.04-.41-.05-.62-.06-1.02,0-2.02.08-3.04s-.2,1.08,0,.06c.05-.24.08-.49.13-.73.11-.56.24-1.11.38-1.66s.29-1.06.46-1.58c.11-.33.22-.65.33-.98.04-.12.52-1.36.29-.82-.26.64.23-.47.23-.48.16-.33.33-.67.52-.99.3-.54.65-1.06.99-1.58.66-1.01-.6.63.2-.27.25-.28.48-.56.74-.82.17-.18.34-.35.52-.52.16-.15,1.38-1.07.49-.46.5-.35,1-.68,1.54-.96.18-.1,1.26-.48.26-.14.38-.13.75-.26,1.13-.36.26-.07.52-.12.78-.18,1.2-.3-.87-.02.34-.05.76-.02,1.5-.03,2.25.02,1.21.08-.9-.24.28.05.36.09.73.15,1.09.25.61.16,1.21.34,1.8.55.36.13.71.26,1.07.4.8.31.14.06-.01,0,.83.37,1.64.75,2.45,1.15,2.76,1.35,5.48,2.78,8.38,3.83s5.56,1.86,8.35,2.74c5.31,1.67,10.66,3.26,15.92,5.07,2.52.87,5.02,1.79,7.48,2.81.23.1.99.42.07.03.33.14.65.28.98.42.54.24,1.08.48,1.62.73,1.3.6,2.58,1.23,3.85,1.9,2.39,1.25,4.72,2.63,6.96,4.13,1.17.78,2.33,1.6,3.45,2.45.09.07,1.11.87.34.26.21.17.42.33.63.5.74.59,1.47,1.2,2.19,1.82,1.07.92,2.11,1.87,3.14,2.84,1.53,1.46,3.06,3.04,5.17,3.62,4.69,1.29,7.48-2.77,10.15-5.83l14.77-16.89,7.22-8.26c1.55-1.77,1.87-4.64,0-6.36-1.7-1.56-4.71-1.89-6.36,0h0Z"/><path class="cls-1" d="M219.67,137.7c1.73,3.17,3.33,6.42,4.86,9.7.65,1.4,1.29,2.81,1.9,4.23.08.18.15.36.23.55.24.56-.34-.82-.11-.25.13.32.27.64.4.96.32.77.62,1.55.92,2.34,1.01,2.67,1.96,5.41,2.46,8.22.04.22.17,1.13.05.26-.13-.93,0,.13.02.31.05.74.04,1.48-.02,2.22-.02.23-.05.47-.07.7.01-.15.16-.99.02-.14-.07.41-.14.83-.23,1.24-.21,1.01-.47,2-.78,2.98-.28.91-.6,1.81-.94,2.7-.06.17-.52,1.32-.29.74s-.04.09-.1.23c-.11.25-.22.5-.33.74-.61,1.34-1.27,2.66-1.98,3.96-1.39,2.52-3.12,4.8-4.78,7.15-2.53,3.57-5.06,7.15-7.59,10.72-1.36,1.93-.41,5.09,1.61,6.16,2.31,1.22,4.7.44,6.16-1.61,2.23-3.15,4.46-6.3,6.69-9.46,1.76-2.48,3.68-4.9,5.19-7.54,1.71-2.99,3.17-6.14,4.36-9.37,1.32-3.59,2.4-7.68,2.08-11.53-.53-6.48-3.35-12.73-5.97-18.59-1.85-4.13-3.83-8.2-5.99-12.17-1.13-2.07-4.16-2.9-6.16-1.61-2.1,1.35-2.82,3.94-1.61,6.16h0Z"/><path class="cls-1" d="M242.87,118.58c-.72.72-1.47,1.42-2.25,2.09-.36.31-.73.61-1.1.91-.68.55-.2.15-.06.04-.27.2-.55.4-.82.6-1.72,1.22-3.53,2.31-5.41,3.28-.85.44-1.72.84-2.59,1.24-.8.36-.23.1-.06.03-.25.11-.51.21-.76.31-.51.2-1.02.4-1.54.58-2.01.73-4.05,1.34-6.12,1.84s-4.24.9-6.39,1.23c-.09.01-.88.12-.21.03-.23.03-.47.06-.7.09-.63.08-1.25.15-1.88.21-1.26.13-2.52.23-3.78.31-4.85.31-9.71.31-14.56.18-5.55-.15-11.1-.47-16.64-.7l3.89,2.23c-3.62-7.58-7.24-15.17-10.86-22.75-.89-1.86-1.77-3.72-2.66-5.58-.2-.43-.41-.85-.61-1.28-.08-.17-.15-.34-.23-.5.02.04.28.73.11.25-.25-.68-.51-1.35-.71-2.05-.18-.64-.28-1.28-.43-1.92-.11-.48.07.47.06.49.03-.09-.03-.32-.04-.42-.02-.32-.04-.63-.05-.95,0-.51.12-1.06.08-1.56.04.53-.17.91,0,.21.07-.28.13-.56.21-.84.07-.23.15-.46.22-.69.28-.91-.4.73-.04.07.25-.46.47-.93.75-1.38.13-.21.27-.41.4-.61.47-.72-.3.32-.11.12.37-.4.7-.83,1.08-1.22.36-.37.73-.73,1.12-1.07.2-.18.4-.35.6-.52.14-.11.28-.22.41-.34.46-.39-.11.13-.28.21.99-.46,1.92-1.37,2.86-1.96,4.19-2.63,8.72-4.66,13.02-7.08,5.95-3.35,11.54-7.18,16.35-12.05,4.31-4.36,8.07-9.2,12.06-13.85,1.96-2.29,3.98-4.53,6.15-6.63,1.04-1.01,2.12-1.99,3.24-2.91.27-.22.54-.43.81-.65-.6.49-.13.1.19-.14.65-.48,1.31-.94,1.99-1.38,1.21-.79,2.47-1.51,3.78-2.14.32-.15.64-.29.95-.44.46-.22-.23.09-.26.11.17-.07.34-.14.51-.2.78-.31,1.57-.58,2.37-.83,1.6-.5,3.24-.87,4.89-1.15.34-.06,1.15-.16.34-.06.39-.05.78-.09,1.16-.13.85-.08,1.7-.14,2.55-.18,1.72-.07,3.45-.05,5.17.05.81.05,1.61.11,2.41.19.4.04.81.08,1.21.13.2.02.4.05.61.07-.45-.05-.4-.06.02,0,3.48.52,6.93,1.26,10.33,2.18,6.69,1.81,13.19,4.25,19.59,6.88.71.29,1.41.58,2.12.88.35.14.69.29,1.04.43.22.09,1.4.59.46.19,2.16.91,4.92.72,6.16-1.61,1.02-1.93.7-5.18-1.61-6.16-13.52-5.71-27.5-11.33-42.32-12.19-7.41-.43-14.83.67-21.59,3.77-5.78,2.65-10.73,6.96-15.05,11.57s-8.2,9.7-12.43,14.44c-2.1,2.35-4.3,4.63-6.69,6.7-.54.47-1.08.92-1.64,1.36-.14.11-.28.22-.42.33.74-.58.23-.17.06-.06-.43.31-.86.63-1.3.93-1.63,1.13-3.33,2.17-5.03,3.19-4.57,2.73-9.41,4.96-14.01,7.63s-9.06,5.83-11.5,10.49c-3.04,5.79-2.05,11.99.64,17.71,3.71,7.91,7.53,15.77,11.29,23.65.92,1.93,1.85,3.87,2.77,5.8.69,1.44,2.39,2.16,3.89,2.23,19.62.84,40.44,2.78,58.69-6.03,4.63-2.23,8.92-5.25,12.56-8.88,1.67-1.67,1.79-4.72,0-6.36s-4.58-1.78-6.36,0h0Z"/><path class="cls-1" d="M253.39,74.43c-.75,3.34-1.32,6.74-1.8,10.13-.94,6.65-1.7,13.45-1.15,20.17.28,3.46.87,6.77,2.25,9.96.61,1.41,1.51,2.59,2.3,3.9.56.93,1.08,1.89,1.57,2.87.23.46.45.92.66,1.39.11.23.21.46.31.7.05.11.53,1.29.14.32,1.61,4,2.93,8.11,4.64,12.07,1.36,3.16,3.26,6.47,6.42,8.11,3.75,1.95,8.09,2.77,12.23,3.42,2.68.42,5.38.78,8.08.99,2.35.18,4.6-2.2,4.5-4.5-.12-2.59-1.98-4.3-4.5-4.5-.55-.04-1.09-.1-1.64-.15s-1.13-.12-1.69-.19c-.34-.04-.67-.08-1.01-.13-.29-.04-.8-.19.39.05-.23-.05-.47-.07-.71-.1-3.38-.49-6.81-1.1-10.05-2.24-.16-.05-1.35-.56-.64-.23s-.38-.19-.51-.26c-.17-.09-1.01-.7-.36-.17s-.23-.24-.38-.39c-.11-.11-.2-.24-.31-.35-.53-.53.28.35.25.34-.19-.07-.47-.67-.57-.84-.44-.7-.83-1.44-1.18-2.2-.16-.33-.42-.74-.49-1.1.02.1.39.97.09.21-.08-.2-.16-.4-.24-.59-.35-.88-.68-1.78-1-2.67-.68-1.87-1.35-3.75-2.08-5.61-.88-2.25-1.82-4.49-2.94-6.64-.85-1.64-1.93-3.11-2.85-4.71-.13-.23-.26-.47-.38-.72-.05-.09-.08-.19-.13-.28-.31-.59.21.45.2.49.06-.46-.51-1.44-.63-1.91-.17-.62-.31-1.24-.43-1.87-.06-.33-.12-.66-.17-.99-.19-1.19.08.78-.03-.21-.65-6.2-.15-12.46.63-18.63.1-.76-.05.35-.06.41.04-.25.07-.51.11-.77.05-.37.11-.75.16-1.12.1-.7.21-1.4.33-2.1.2-1.21.41-2.42.64-3.63.21-1.14.43-2.27.69-3.4.52-2.29-.7-4.98-3.14-5.54-2.28-.52-4.98.69-5.54,3.14h0Z"/></svg>