<?xml version="1.0" encoding="UTF-8"?>
<svg xmlns="http://www.w3.org/2000/svg" version="1.1" viewBox="0 0 300 300">
  <defs>
    <style>
      .cls-1 {
        fill: #ae31ff;
      }

      .cls-2 {
        display: none;
      }
    </style>
  </defs>
  <!-- Generator: Adobe Illustrator 28.7.1, SVG Export Plug-In . SVG Version: 1.2.0 Build 142)  -->
  <g>
    <g id="Layer_1" class="cls-2">
      <g>
        <path class="cls-1" d="M17.2,117.7c3.8,3.5,7.6,7,11.4,10.6s3,3,5.4,3.1,3.6,0,5.4,0h74.4c2,0,4,0,6,0s.6.2-.9-.2-1.1-.5-.3-.1c1.2.6,2.2,1.3,3.3,2s-.8-.7-.1-.1.3.2.4.3c.3.3.6.6,1,.9s.7.9.9,1c-.5-.2-.5-.8-.1-.2s.4.5.5.8.2.3.3.5c.5.9-.1,0,0,0,0,0,.4,1.2.4,1.4.2.7-.2-.3,0-.3s0,.9,0,.9c0,.2,0,.5,0,.7,0,.2,0,.5,0,.7,0-.6,0-.7,0-.3-.1.6-.2,1.1-.4,1.7s-.2.5-.3.8c-.3.8,0-.1,0-.2,0,.4-.5,1-.7,1.4-.3.5-.6,1-.9,1.5-.5.8.7-.8,0,0s-.2.3-.3.4c-.3.3-.5.6-.8.9-.4.5-.9.9-1.4,1.3s-1,.5.5-.3c-.5.3,1-.4.9-.4-.1,0-.3,0-.4.1-.9.2-1.7.5-2.6.7-3.1.8-6.1,1.6-9.2,2.4s-5.5,1.4-8.2,2.1-.7.2-1,.3c-.9.2.1-.2.5,0-.6-.3-2,0-2.7-.1-1,0-2.1,0-3.1,0-5.2.3-10.5,2-13.3,6.8s-2,6.2-1.9,9.3.5,6.4.8,9.6c.7,6.5,1.6,13.1,3.5,19.3s4.6,11.6,8.1,16.7,7.3,9.4,11.6,13.6,8.8,7.9,13.1,11.9,2,1.9,3,2.9,1,1.1,1.5,1.6.6.7.9,1,.9,1.1.4.5c.8,1.1,1.6,2.2,2.3,3.4s.6,1,.9,1.5.8,1.3.8,1.7c0-.4-.3-.8-.1-.3s.2.5.3.8c.1.4.2.8.3,1.2s0,.3,0,.5c.2.8,0-1.2,0-.3s0,.8,0,1.1c0,.9.3-1.2,0,0s-.4,1.3,0,.4,0,0-.2.2c-.2.4-.6.4.3-.4-.1.1-.2.3-.3.4-.2.2-.5.4-.6.6.7-.9.8-.5.3-.3s-.2.1-.3.2c-.3.2-.6.3-.8.4-.7.4,1-.4.4-.2s-.4.2-.7.2c-.7.2-1.4.4-2.1.6s-.8.1-1.1.2c-.6.1.5-.2.5,0,0,0-.8,0-.8,0-3.6.3-7.3.1-10.9-.3s-.4,0-.5,0c-1-.1,1.1.2.1,0s-.9-.1-1.3-.2c-.7-.1-1.4-.3-2.1-.5s-.3-.1-.5-.2c-.8-.3.9.4.3.1s-.7-.3-1.1-.5c-.8-.4-1.6-.9-2.4-1.4s-1.6-1.1-2.4-1.6-.9-.6-1.2-.9c.8.8.2.1,0,0s-.5-.4-.7-.6c-1.8-1.4-3.5-3-5.2-4.5-6.2-5.7-12.1-11.7-18-17.7-4.4-4.4-8.6-9.1-12.7-13.9s-7-8.7-10.7-14-6.2-9.8-9.6-14.5-8-9.4-14.1-11.1-12.7-.5-18.9.7c-2.3.5-3.9,3.3-3.1,5.5s3.1,3.6,5.5,3.1,2.9-.6,4.4-.8,1.8-.2,1-.2c.9-.1,1.8-.2,2.6-.2,1.3,0,2.6,0,3.9,0s-.8-.2.5,0,.6.1.8.2c.8.2,1.5.4,2.3.7s-.7-.4.3.1.4.2.7.3c.5.3,1.1.6,1.6,1s.4.3.6.4c-.7-.6,0,0,.1.1.5.4,1,.9,1.5,1.4s.9.9,1.3,1.4.3.4.5.6c.8.9-.3-.5.1.1.8,1.1,1.6,2.2,2.3,3.3,3.1,4.7,6,9.4,9.3,14s7.2,9.7,11.1,14.3c6.3,7.6,13.4,14.4,20.3,21.4s12.1,12.2,19,17.2c2.9,2.1,6.1,4.2,9.6,5s7.4,1.1,11.1,1.2c6.2.2,15-.6,18.1-7s1-8.3-.7-12.2-5.9-9.4-9.8-13.1-8.5-7.5-12.6-11.4-3.8-3.7-5.6-5.7-1.9-2.1-2.8-3.1-.8-1-1.2-1.5-.4-.5-.6-.8c.5.6-.2-.3-.3-.4-1.6-2.2-3.1-4.4-4.4-6.7s-1.3-2.3-1.8-3.5-.6-1.3-.9-1.9c0,.2.3.7,0,0s-.3-.9-.5-1.3c-1.1-2.9-1.9-5.8-2.5-8.8s-.5-2.7-.8-4.1-.2-1.5-.4-2.3-.1-.9,0-.2c0-.5-.1-.9-.2-1.4-.4-3.1-.7-6.1-.9-9.2s-.3-2.7-.3-4.1,0-1.5,0-2.3,0-.3,0-.1c0-.5.2-1,.4-1.5.2-.8-.1-.2,0,0,0,0,.3-.5.3-.5.1-.2.3-.4.4-.6.2-.5-.7.7,0,.1s.3-.3.4-.4.6-.7.2-.2,0,0,.2-.1.5-.3.7-.4c.7-.4-.2.2-.3.1,0,0,.7-.3.8-.3.4-.1.8-.2,1.3-.3s.5,0,.7-.1c.6-.1-.1.2-.3,0,.1.1,1.4-.1,1.6-.1,2.8-.2,5.5.3,8.2-.4s4.8-1.3,7.2-1.9c4.5-1.2,9.1-2.1,13.5-3.5s5.3-4.2,6.8-6.5c2.7-4.1,4.1-9.7,2.4-14.4s-4.6-7.3-8.3-9.6-3.4-2-5.4-2.1c-9.4-.2-18.7,0-28.1,0h-57.9l3.2,1.3c-4.4-4.1-8.9-8.2-13.3-12.3s-4.7-1.8-6.4,0-1.8,4.7,0,6.4h0Z"/>
        <path class="cls-1" d="M87.4,203.4c9.1,4.2,18.2,8.4,27.2,12.6,4.5,2.1,9,4.2,13.5,6.3s.7.3,1.1.5.8.3,1.2.5c-1.9-.8-1.3-.6-.9-.4s.3.6-.6-.5c.1.1.3.3.4.4.8.7-.7-1.1-.2-.3s.3.5.5.8c.4.7-.4-1.3-.2-.4s.2.5.2.7.1.5.2.8,0,.2,0,.3c.2.9,0-.9,0-.5,0,1.6.1,3.1,0,4.7s0,.3,0,.5c0,.8.2-1.2,0,.1s-.2,1-.3,1.6c-.2,1.2-.5,2.5-.9,3.7-.9,3.3-2,6.5-3.3,9.6s1,5,3.1,5.5,4.6-.8,5.5-3.1c2-5,3.7-10.1,4.5-15.4s.8-6.8-.1-10.1-1.4-3.7-2.8-5-1-.8-1.5-1.1-2.3-1.2,0,0c0,0-.2,0-.2-.1-10-4.8-20.1-9.3-30.2-14l-11.6-5.4c-2.1-1-4.9-.7-6.2,1.6s-.7,5.1,1.6,6.2h0Z"/>
        <path class="cls-1" d="M250.7,174c-5,5.8-10.1,11.5-15.1,17.3s-5,5.8-7.5,8.6l-1.8,2.1c-.2.3-.5.5-.7.8-.4.6.1,0,.5-.1h1.3c.5.2.5.2,0,0,.1,0,.4.4,0,0-.7-.7-1.4-1.4-2.2-2.1-8.8-8.2-19.1-13.9-30.4-18.1-5.3-1.9-10.6-3.6-16-5.2s-5.7-1.8-8.6-2.7-2.8-.9-4.1-1.4c.9.3,0,0-.1,0s-.6-.3-.9-.4c-.8-.4-1.6-.8-2.4-1.2-5.9-2.9-12-5.7-18.7-3.9-6.8,1.8-11.1,7.7-13.3,14s-2.2,9.7-.9,14.4,3.5,7.3,6.6,9.9c6.6,5.4,14.9,7.9,22.7,10.9s1.8.7,2.6,1,1.7.5.3.1c.5.2,1.1.5,1.6.7,2.7,1.2,5.2,2.6,7.8,4,5.7,3.1,11.2,6.4,16.5,10.2s1.4,1,2.1,1.5c-.7-.5.4.3.4.4.2.2.4.4.7.5,1.3,1.1,2.7,2.2,3.9,3.3,2.5,2.2,4.8,4.5,7,7,4.4,4.9,8.4,10.1,13.2,14.6s9.7,7.9,15.7,9.3,10.2.7,15-1c9.6-3.6,17.2-10.7,26.1-15.6,1-.6,2.1-1.1,3.1-1.6s1.1-.5,1.7-.8c-1.1.4,0,0,.2,0,.3-.1.6-.2.9-.3,2.2-.8,3.9-3.1,3.1-5.5s-3.2-4-5.5-3.1c-9.7,3.6-17.4,10.2-26.2,15.4s-2,1.1-3,1.6-.9.5-1.4.7-.5.2-.8.4c-.8.4.9-.3,0,0s-2,.7-3,1-.9.2-1.4.3-.6.1-.8.2c-.8.2,1.1-.1-.2,0s-1.9.1-2.9,0-.6,0-.9,0c-1.1-.1,0,0,0,0,0,0-1.7-.3-1.8-.4-.5-.1-1-.3-1.5-.4s-.6-.2-.9-.3c-1.1-.4.9.4-.2,0s-2.4-1.2-3.5-1.9-1.3-.9-2-1.4-.2-.2,0,0c-.3-.3-.7-.5-1-.8-1.3-1.1-2.6-2.2-3.8-3.5-2.2-2.2-4.3-4.6-6.3-7-4.2-4.9-8.4-9.7-13.3-14-9.5-8.3-20.6-15.1-32-20.4-3.8-1.8-7.7-3.2-11.6-4.6s-3.7-1.4-5.5-2.1,1,.4.1,0-.5-.2-.7-.3c-.4-.2-.8-.4-1.2-.5-.9-.4-1.8-.9-2.7-1.4s-1.5-.8-2.2-1.3-.7-.5-1.1-.7-.3-.2-.5-.3c0,0-.2-.1-.3-.2-.4-.3-.3-.2.4.3-.2,0-1.7-1.5-1.9-1.7-.3-.3-.5-.5-.8-.8s-.4-.5-.4-.5c.4,0,.6.9.2.2s-.9-1.4-1.2-2.1-.2-.9,0,.3c0-.2-.1-.4-.2-.5-.2-.5-.3-.9-.4-1.4s-.2-.8-.2-1.2c-.2-.9,0,1.2,0,.2s0-.4,0-.6c0-1,0-2,0-3s-.2,1.1,0,0,0-.5.1-.7c.1-.6.2-1.1.4-1.7s.3-1.1.5-1.6.2-.7.3-1,.5-1.4.3-.8.2-.5.2-.5c.2-.3.3-.7.5-1,.3-.5.6-1.1,1-1.6.7-1-.6.6.2-.3s.5-.6.7-.8.3-.3.5-.5,1.4-1.1.5-.5c.5-.3,1-.7,1.5-1s1.3-.5.3-.1c.4-.1.7-.3,1.1-.4s.5-.1.8-.2c1.2-.3-.9,0,.3,0s1.5,0,2.3,0c1.2,0-.9-.2.3,0s.7.2,1.1.2c.6.2,1.2.3,1.8.6s.7.3,1.1.4c.8.3.1,0,0,0,.8.4,1.6.7,2.5,1.1,2.8,1.4,5.5,2.8,8.4,3.8s5.6,1.9,8.4,2.7c5.3,1.7,10.7,3.3,15.9,5.1s5,1.8,7.5,2.8,1,.4,0,0c.3.1.7.3,1,.4.5.2,1.1.5,1.6.7,1.3.6,2.6,1.2,3.8,1.9,2.4,1.3,4.7,2.6,7,4.1s2.3,1.6,3.5,2.4,1.1.9.3.3c.2.2.4.3.6.5.7.6,1.5,1.2,2.2,1.8,1.1.9,2.1,1.9,3.1,2.8,1.5,1.5,3.1,3,5.2,3.6,4.7,1.3,7.5-2.8,10.1-5.8l14.8-16.9,7.2-8.3c1.5-1.8,1.9-4.6,0-6.4s-4.7-1.9-6.4,0h0Z"/>
        <path class="cls-1" d="M219.7,137.7c1.7,3.2,3.3,6.4,4.9,9.7s1.3,2.8,1.9,4.2.2.4.2.5c.2.6-.3-.8-.1-.3s.3.6.4,1c.3.8.6,1.6.9,2.3,1,2.7,2,5.4,2.5,8.2s.2,1.1,0,.3,0,.1,0,.3c0,.7,0,1.5,0,2.2s0,.5,0,.7c0-.1.2-1,0-.1s-.1.8-.2,1.2c-.2,1-.5,2-.8,3s-.6,1.8-.9,2.7-.5,1.3-.3.7,0,0-.1.2c-.1.2-.2.5-.3.7-.6,1.3-1.3,2.7-2,4-1.4,2.5-3.1,4.8-4.8,7.1-2.5,3.6-5.1,7.1-7.6,10.7s-.4,5.1,1.6,6.2,4.7.4,6.2-1.6c2.2-3.2,4.5-6.3,6.7-9.5s3.7-4.9,5.2-7.5,3.2-6.1,4.4-9.4,2.4-7.7,2.1-11.5c-.5-6.5-3.3-12.7-6-18.6s-3.8-8.2-6-12.2-4.2-2.9-6.2-1.6-2.8,3.9-1.6,6.2h0Z"/>
        <path class="cls-1" d="M242.9,118.6c-.7.7-1.5,1.4-2.2,2.1s-.7.6-1.1.9c-.7.5-.2.2,0,0-.3.2-.5.4-.8.6-1.7,1.2-3.5,2.3-5.4,3.3s-1.7.8-2.6,1.2-.2.1,0,0c-.3.1-.5.2-.8.3-.5.2-1,.4-1.5.6-2,.7-4.1,1.3-6.1,1.8s-4.2.9-6.4,1.2-.9.1-.2,0c-.2,0-.5,0-.7,0-.6,0-1.3.1-1.9.2-1.3.1-2.5.2-3.8.3-4.8.3-9.7.3-14.6.2s-11.1-.5-16.6-.7l3.9,2.2c-3.6-7.6-7.2-15.2-10.9-22.8-.9-1.9-1.8-3.7-2.7-5.6s-.4-.9-.6-1.3-.1-.3-.2-.5c0,0,.3.7.1.3-.3-.7-.5-1.4-.7-2s-.3-1.3-.4-1.9,0,.5,0,.5c0,0,0-.3,0-.4,0-.3,0-.6,0-1,0-.5.1-1.1,0-1.6,0,.5-.2.9,0,.2s.1-.6.2-.8.2-.5.2-.7c.3-.9-.4.7,0,0s.5-.9.7-1.4.3-.4.4-.6c.5-.7-.3.3-.1.1.4-.4.7-.8,1.1-1.2s.7-.7,1.1-1.1.4-.3.6-.5.3-.2.4-.3c.5-.4-.1.1-.3.2,1-.5,1.9-1.4,2.9-2,4.2-2.6,8.7-4.7,13-7.1s11.5-7.2,16.3-12c4.3-4.4,8.1-9.2,12.1-13.8,2-2.3,4-4.5,6.2-6.6s2.1-2,3.2-2.9.5-.4.8-.7c-.6.5-.1,0,.2-.1.6-.5,1.3-.9,2-1.4,1.2-.8,2.5-1.5,3.8-2.1s.6-.3,1-.4c.5-.2-.2,0-.3.1.2,0,.3-.1.5-.2.8-.3,1.6-.6,2.4-.8,1.6-.5,3.2-.9,4.9-1.1s1.2-.2.3,0c.4,0,.8,0,1.2-.1.8,0,1.7-.1,2.5-.2,1.7,0,3.5,0,5.2,0s1.6.1,2.4.2.8,0,1.2.1.4,0,.6,0c-.4,0-.4,0,0,0,3.5.5,6.9,1.3,10.3,2.2,6.7,1.8,13.2,4.3,19.6,6.9s1.4.6,2.1.9.7.3,1,.4,1.4.6.5.2c2.2.9,4.9.7,6.2-1.6s.7-5.2-1.6-6.2c-13.5-5.7-27.5-11.3-42.3-12.2s-14.8.7-21.6,3.8-10.7,7-15,11.6-8.2,9.7-12.4,14.4-4.3,4.6-6.7,6.7-1.1.9-1.6,1.4-.3.2-.4.3c.7-.6.2-.2,0,0-.4.3-.9.6-1.3.9-1.6,1.1-3.3,2.2-5,3.2-4.6,2.7-9.4,5-14,7.6s-9.1,5.8-11.5,10.5-2,12,.6,17.7,7.5,15.8,11.3,23.6,1.8,3.9,2.8,5.8,2.4,2.2,3.9,2.2c19.6.8,40.4,2.8,58.7-6s8.9-5.2,12.6-8.9,1.8-4.7,0-6.4-4.6-1.8-6.4,0h0Z"/>
        <path class="cls-1" d="M253.4,74.4c-.8,3.3-1.3,6.7-1.8,10.1-.9,6.7-1.7,13.5-1.1,20.2s.9,6.8,2.2,10,1.5,2.6,2.3,3.9,1.1,1.9,1.6,2.9.4.9.7,1.4.2.5.3.7.5,1.3.1.3c1.6,4,2.9,8.1,4.6,12.1s3.3,6.5,6.4,8.1,8.1,2.8,12.2,3.4,5.4.8,8.1,1,4.6-2.2,4.5-4.5-2-4.3-4.5-4.5-1.1,0-1.6-.2-1.1-.1-1.7-.2-.7,0-1-.1-.8-.2.4,0c-.2,0-.5,0-.7-.1-3.4-.5-6.8-1.1-10-2.2s-1.4-.6-.6-.2-.4-.2-.5-.3-1-.7-.4-.2-.2-.2-.4-.4-.2-.2-.3-.3c-.5-.5.3.4.3.3-.2,0-.5-.7-.6-.8-.4-.7-.8-1.4-1.2-2.2s-.4-.7-.5-1.1c0,.1.4,1,0,.2s-.2-.4-.2-.6c-.3-.9-.7-1.8-1-2.7-.7-1.9-1.3-3.8-2.1-5.6s-1.8-4.5-2.9-6.6-1.9-3.1-2.8-4.7-.3-.5-.4-.7,0-.2-.1-.3c-.3-.6.2.5.2.5,0-.5-.5-1.4-.6-1.9s-.3-1.2-.4-1.9-.1-.7-.2-1c-.2-1.2,0,.8,0-.2-.6-6.2-.1-12.5.6-18.6s0,.4,0,.4c0-.3,0-.5.1-.8,0-.4.1-.7.2-1.1.1-.7.2-1.4.3-2.1.2-1.2.4-2.4.6-3.6s.4-2.3.7-3.4c.5-2.3-.7-5-3.1-5.5s-5,.7-5.5,3.1h0Z"/>
      </g>
    </g>
    <g id="Layer_4">
      <g>
        <path class="cls-1" d="M172.5,56.7v44.1l3.3-4.3c-1.1.2-2.1.4-3.2.5s-1,.2-1.5.2-.6,0-.9.1-.3,0-.5,0c-.5,0,1.3-.2.4,0-1.5.2-2.9.4-4.4.5-6.7.7-13.5,1.3-20.2.8s-.8,0-1.2-.1c-1.2-.1,1.1.2-.2,0s-1.4-.3-2.1-.4-.7-.2-1-.3-.3,0-.4-.1c-.5-.2-.4-.5.4.2-.4-.3-2.2-1.4-.6-.2-1.2-.9-2.2-1.4-3.8-1.2s-2.6.9-3.3,2.1c-3.6,6.4-7.6,12.5-12.1,18.4,0,0-.9,1.2-.4.5-.3.4-.6.7-.8,1.1-.5.6-1,1.2-1.4,1.8-1.2,1.5-2.5,3.1-3.8,4.5-2,2.3-4,4.5-6.2,6.5s-1.9,1.7-2.9,2.5-1.1.9-1.6,1.3-1.1.8-.2.2c-.3.2-.6.4-.8.6-2.2,1.7-4.5,3.3-6.9,4.9-4.8,3.3-9.7,6.6-14.4,10.2s-8.3,7-11.7,11.3-7.3,11.7-9.8,18.2c-5.2,13.4-7.5,27.7-8.1,42-.7,16,.7,31.9,2.2,47.8l6.8-3.9c-6.6-5-13.3-10-19.9-14.9l-2.9-2.2c-1.9-1.4-5.1-.4-6.2,1.6s-.4,4.6,1.6,6.2c6.6,5,13.3,10,19.9,14.9l2.9,2.2c2.6,2,7.1-.7,6.8-3.9-1.3-14.1-2.6-28.3-2.4-42.4s.2-6.8.4-10.2.3-3.5.5-5.3.2-1.5.2-2.2.1-.9.2-1.3c-.1.9.1-.8.1-1,1-6.9,2.6-13.7,4.8-20.3s1.1-3.1,1.7-4.7.7-1.7,1-2.5c-.3.8.3-.6.3-.6.2-.6.5-1.1.8-1.7,1.2-2.7,2.6-5.3,4.3-7.8s.8-1.1,1.2-1.7c.7-1-.6.7.2-.2s.4-.5.7-.8c.9-1.1,1.8-2.1,2.8-3.1,1.9-1.9,3.9-3.8,6-5.5s1-.8,1.5-1.2c.9-.7-.8.6.2-.1s.6-.4.8-.6c1.1-.8,2.2-1.7,3.4-2.5,2.3-1.6,4.6-3.2,6.9-4.8,4.8-3.2,9.5-6.5,13.9-10.3s10.1-10.1,14.4-15.7,9.8-13.4,13.9-20.7l-7.1.9c2.5,1.9,5.3,2.8,8.4,3.3s7.3.6,11.1.5c6.9-.2,13.7-1,20.5-2s2.9-.4,4.3-.7,3.3-2.5,3.3-4.3v-44.1c0-2.4-2.1-4.6-4.5-4.5s-4.5,2-4.5,4.5h0Z"/>
        <path class="cls-1" d="M213.8,265.9c-.7-.2-1.3-.5-2-.7,1.5.5.1,0-.3-.2s-1-.5-1.5-.7c-2.1-1-4.1-2.2-6.1-3.4-3.5-2-6.9-4.2-10.2-6.4s-.8-.5-1.2-.8-.2-.1-.3-.2c-.5-.3,1.1.9.6.5s.6,1.1.4.5-.1-.3-.2-.4c-.3-.5.5,1.3.3.7s0-.2-.1-.3c0-.3-.2-.6-.3-.9-.1-.6-.3-1.2-.4-1.8s0-.3,0-.5c-.1-.8.2,1.3,0,.5s-.1-.9-.1-1.3c-.2-1.8-.3-3.7-.3-5.5-.3-8.7.2-17.4.6-26s.3-6.7.5-10,0-1.9,0-2.9c0-1.9,0-3.9,0-5.8s0-1.9.1-2.9,0-1,.1-1.4c0-.6,0-.6,0-.2,0-.3,0-.6.2-.9.3-1.5.6-2.9,1.1-4.3s.5-1.5.8-2.3.5-1.3.2-.4c.2-.5.4-1,.7-1.5,1.4-3,3.1-5.9,4.9-8.8s3.6-5.7,5.2-8.7,1.9-3.1,2.2-4.7c.6-3.1.9-6.3,1.2-9.4.5-5.9.8-11.8.7-17.7s-.1-7.4-.3-11.1-.3-6.6,0-10,0-1.3,0-.1c0-.3,0-.7.1-.9.1-.6.2-1.2.3-1.8.3-1.1.6-2.2,1-3.3s.2-.4.3-.7c.3-.8-.5,1,0,.2s.3-.7.5-1c.4-.8.8-1.5,1.3-2.2.8-1.1-.6.7,0,0s.4-.5.6-.7c.4-.4.9-.8,1.3-1.2s-1.1.8-.2.2.3-.2.5-.3c.3-.2.6-.3.9-.5.9-.5-1.3.4-.4.2s.2,0,.3,0c.4-.1.8-.2,1.2-.3,6.7-1.4,13.3-2.9,20-4.3l9.5-2.1c.7-.1,1.3-.3,2-.4,1.5-.4,2.4-1.4,3.1-2.6,4-6.4,7.8-12.9,11.3-19.7s1.9-3.7,2.7-5.6,1.5-3.4,1.8-5.1c.6-2.9.1-6-2.1-8.2s-3.8-2.5-6-2.9-4.3-.3-6.5-.2-5.6,0-8.5,0h-11.7c-1.1,0-2.2,0-3.2,0s-.8-.2.6.1c-.4-.1-.4-.3.8.3-.5-.3.2-.2.6.5,0-.2-.4-.5-.6-.6.9.7.6.9.3.4s-.2-.3-.3-.4c-.2-.3-.4-.6-.6-1-.5-.8-.9-1.7-1.3-2.5s-.8-1.7-1.1-2.5-.4-1.2,0,.1c0-.2-.2-.5-.3-.7-.2-.6-.5-1.2-.7-1.8-1.4-3.5-2.6-7-3.9-10.5s-1.7-4.6-3.6-6.3c-3.8-3.4-8.7-2.1-12.7.1s-2.7,1.5-4,2.1.9-.3-.3.1-.7.3-1,.4c-.7.2-1.4.5-2.1.7-1.4.4-2.9.8-4.4,1s-1.5.3-2.3.4c1.1-.2-.2,0-.3,0-.5,0-1,.1-1.5.2-6.5.6-13,.3-19.4-.2s-6.4-.6-9.6-.8-2.9-.2-4.4-.3-2.7-.3-4.1,0c-2.7.6-4.9,2.7-6.6,4.8-2.4,2.9-4.5,6.1-6.4,9.4-4.6,7.7-8.4,15.9-11.9,24.2s-2.6,6.5-3.7,9.9-1.5,5-1.2,7.5c.9,7.3,4.8,13.7,10.9,17.9s5.1.4,6.2-1.6.5-4.7-1.6-6.2-1.1-.8-.3-.2c-.3-.2-.6-.5-.9-.7-.6-.5-1.1-1.1-1.6-1.6s-.9-1.1-.3-.3c-.2-.3-.5-.6-.7-.9-.5-.7-.9-1.5-1.3-2.3s-.6-1.3-.2-.3c-.1-.4-.3-.7-.4-1.1-.2-.7-.5-1.5-.6-2.2s-.1-.8-.2-1.1c.1.9,0,.3,0,0s0-.4,0-.5c0-.5.3-1.2,0,.5,0-.2,0-.4.1-.7.1-.6.2-1.1.4-1.7.4-1.3.8-2.7,1.2-4s1.2-3.4,1.9-5.1.7-1.8,1.1-2.7.2-.5.3-.7c-.6,1.3-.2.4,0,.1.2-.6.5-1.1.7-1.7,1.8-4,3.6-8,5.6-11.9s3.9-7.3,6.1-10.8,2-2.9,3-4.3c-.9,1.4-.2.2,0-.1s.4-.5.7-.8c.4-.5.9-1,1.4-1.4s.4-.3.6-.5c.5-.4-1.1.7-.5.4s.2-.1.3-.2c.2,0,.3-.2.5-.3.8-.5-1.3.4-.4.2s-.9,0-.6,0c.5,0,1,0,1.6,0,1.6,0,3.1.2,4.7.3,6.4.5,12.8,1.2,19.2,1.4s13.6-.1,20.2-1.8,6.2-1.9,9-3.4,1.4-.8,2.1-1.1.7-.4,1.1-.6c1.1-.6-.7.2.4-.2s.7-.2,1.1-.3h-.5c.5,0,.5,0-.1,0h.4c-.5-.2-.5-.2,0,.1-.4-.3-.4-.3,0,0-.3-.4-.3-.4,0,0,.1.3.3.7.5,1-.3-.7-.2-.4-.1-.2s.1.3.2.5c.2.6.4,1.2.6,1.8.6,1.7,1.2,3.5,1.9,5.2,1.6,4.2,3.2,8.5,5.3,12.5s3.6,6.1,7.4,6.1,5.8,0,8.6,0c5.3,0,10.7.3,16,0s1.2,0,1.8,0,.7,0,1.1,0,.4,0,.6,0c.8,0-1.3-.3-.2,0s.8.2,1.2.3.4.1.6.2c.8.2-1-.6-.4-.2s.3.2.5.3c.6.3,0,.4-.3-.3,0,0,.3.4.4.4-.5-.7-.6-.8-.4-.5,0,.1.1.2.2.3-.5-.3-.3-1.1-.2-.4s0-1.2,0-.4,0,.7,0,.7c-.1,0,.3-1.2,0-.3s-.3,1.2-.5,1.9-.3.7-.4,1.1-.2.4-.2.6c-.3.8.5-1.1.1-.3s-.9,1.9-1.3,2.8c-3.5,7.3-7.7,14.3-11.9,21.2s-.6.9-.8,1.4l2.7-2.1c-5.1,1.1-10.3,2.2-15.4,3.3s-11.5,2.3-17.2,3.7-7.2,4.3-9.3,7.7c-6.3,10.3-3.8,23.1-3.8,34.4s-.2,11.4-.7,17.1-.4,3.7-.6,5.5-.3,1.8,0,0c0,.3,0,.6-.1.8,0,.4-.1.8-.2,1.2s-.1.4,0,.5h0c0,.3,0,0,.3-.7,0,0-.5,1-.5,1.1-.4.8-.8,1.5-1.2,2.3-1.6,2.9-3.4,5.7-5.1,8.5-3.5,5.7-6.8,11.7-8.1,18.3s-.7,11-.9,16.5-.3,6.1-.4,9.2c-.4,8.6-.8,17.2-.7,25.7,0,3.7.2,7.5.8,11.2s1.4,5.4,3.8,7.1c5.9,4.1,12.1,7.9,18.5,11.1s3.5,1.7,5.3,2.2,5-.8,5.5-3.1-.7-4.9-3.1-5.5h0Z"/>
        <path class="cls-1" d="M107.7,189.2c1-.2-1.4.2-.6,0s1.1-.1,1.6-.2c1.8-.2,3.6-.3,5.3-.3s4.5,0,6.7.3-1.2-.2-.2,0,.6,0,.8.1c.6.1,1.2.2,1.8.4s1,.3,1.5.4.4.2.7.2c1,.4-1-.5,0,0s.9.4,1.3.7.4.2.5.4c.9.6-.8-.7,0,0s.6.7.9,1-.7-1-.2-.3.3.5.4.7c.4.7-.3-1.1-.1-.2s.1.4.2.6,0,.5.1.8c-.4-1.2,0-.7,0,0s0,1.2-.1,1.8,0-.3,0-.3c0,.1,0,.4,0,.6,0,.4-.1.9-.2,1.3-1.3,6.9-3.8,13.6-6.4,20.1s-.3.7-.4,1c.5-1.1,0,0-.1.3-.3.7-.6,1.4-.9,2.1-.6,1.3-1.1,2.5-1.7,3.8s-1.5,3.2-2.3,4.7c-1.3,2.6-1.9,5.5-2.6,8.3-1.4,6.1-2.4,12.9-.9,19.1s2.2,5.8,4.5,7.7,5,3.2,7.8,4.3c5.5,2.2,11.3,3.4,17.1,4.5s8.7,1.4,13,1.9.4,0,.7,0c2.3.2,4.6-2.2,4.5-4.5s-2-4.2-4.5-4.5-1.7-.2-2.5-.3-.9-.1-1.3-.2c-.9-.1.6,0,.4,0-.3,0-.6,0-.9-.1-1.2-.2-2.4-.3-3.6-.5-5.8-.9-11.6-2.1-17.1-3.9s-1.3-.4-2-.7-.6-.2-.8-.3-.3-.1-.5-.2c-.7-.3,0,0,.3.1-1-.2-2.4-1.1-3.3-1.6s-.9-.7-1.3-.9c0,0,.9.8.5.4s-.1-.1-.2-.2c-.2-.2-.4-.4-.6-.6-.8-.8.3.6,0,0s-.3-.5-.5-.8-.2-.5-.4-.7c-.3-.5.3.9.2.4s-.1-.4-.2-.6c-.2-.6-.4-1.3-.5-1.9s0-.6-.2-.9c-.1-.6,0,1,0,.4s0-.4,0-.7c-.1-1.5-.1-3,0-4.4s.1-1.5.2-2.3.2-1.3,0-.5,0,0,0,0,0-.5.1-.7c.2-1.4.5-2.8.8-4.1.4-2,1-3.9,1.6-5.9s.4-.9.3-1-.7,1.4-.4.9.2-.3.2-.5c2.3-4.6,4.4-9.2,6.3-13.9s5.2-13.2,6.5-20.1,1.2-6.4.2-9.5-2.8-5-5.2-6.7c-4.2-2.8-9.7-3.4-14.6-3.6s-6.7,0-10,.5-1.1.1-1.7.2c-2.3.4-3.8,3.4-3.1,5.5s3,3.5,5.5,3.1h0Z"/>
      </g>
    </g>
    <g id="Layer_3" class="cls-2">
      <g>
        <path class="cls-1" d="M168.3,37.5c.2,4.8,1,9.7,1.8,14.5,1.5,8.2,3.9,16.8,8.5,23.8s5.5,6.9,9.4,8.8,8.3,3,12.4,4.3c9.6,3.2,19.1,6.4,28.7,9.6s11.9,4,17.9,6l-3.1-3.1c1,3.8,1.9,7.6,2.9,11.4,2.3,9.1,4.6,18.2,6.9,27.3,2.8,10.9,5.6,21.9,8.3,32.8l7.2,28.4c1.2,4.6,2.2,9.3,3.5,13.9s0,.1,0,.2v-2.4c-.5,2.7-1.1,5.4-1.8,8s-1.3,4.8-2,7.2-.8,2.4-1.2,3.5-.5,1.1-.6,1.6c.1-.5.4-.9,0-.2s-.2.5-.4.8c-.5,1-1,1.9-1.6,2.8s.8-.9.2-.3-.3.3-.4.4c-.6.6.4-.3.4-.3-.3.3-1.2.5.5-.2-2.2.9-3.9,3.1-3.1,5.5s3.2,4.1,5.5,3.1c5.4-2.1,7.4-8.8,9.1-13.9,1.5-4.7,2.7-9.5,3.7-14.3s.6-2.6.3-4-.2-.7-.3-1.1l-1.5-6c-2-7.9-4-15.7-6-23.6l-7.9-31.3c-2.5-10-5.1-20-7.6-29.9s-3.2-12.8-4.9-19.2-.5-2.8-1.2-3.8c-1-1.6-2.6-2-4.3-2.6s-3.3-1.1-5-1.7c-12.2-4.1-24.3-8.2-36.5-12.3s-6-2-8.9-3-2.5-.8-3.8-1.3-.6-.2-.8-.3-1.2-.5-.4-.1-.2,0-.3-.2c-.3-.1-.6-.3-.8-.5s-1.1-.9-1.4-1c0,0,.9.7.4.3s-.2-.2-.3-.3c-.3-.2-.5-.4-.7-.7-.4-.4-.9-.8-1.3-1.3s-.4-.5-.6-.7-.2-.2-.3-.4c-.4-.4.6.9.2.3-1.6-2.3-2.9-4.6-4-7.1s-.1-.3-.2-.5c-.2-.5.4.9.2.4s-.3-.6-.4-1c-.3-.7-.5-1.4-.8-2.1-.5-1.4-.9-2.8-1.3-4.2-.7-2.6-1.3-5.3-1.9-7.9s-.5-2.5-.6-3.7-.2-1-.2-1.5,0-.5-.1-.8c0-.5.1,1.2,0,.6s0-.3,0-.5c-.2-1.6-.4-3.2-.5-4.9s0-1.2-.1-1.8c-.1-2.3-2-4.6-4.5-4.5s-4.6,2-4.5,4.5h0Z"/>
        <path class="cls-1" d="M37,117.5c-2.6,9.5-5,19-7.5,28.5s-2.3,9-3.7,13.4-2.9,8.4-4.3,12.6c-2.5,8-4,16.3-2.5,24.6s3.1,11.7,5.4,17.3,5.7,12.6,10.1,18,3.9,4.5,6.5,5.8c4.1,2.2,8.8,2.3,13.3,2.3,17.6,0,34.9-4.5,51.4-10.2,16.6-5.8,32.6-13,49-19.3,2-.8,3.9-1.5,5.9-2.2s3.3-2.2,3.3-4.3v-44.1c0-3.1-2.9-4.8-5.7-4.3s-6.4,1.1-9.6,1.7c-7.7,1.4-15.4,2.7-23,4.1s-18.7,3.3-28,5l-24.2,4.3c-3.9.7-7.9,1.2-11.7,2.1s-.1,0-.2,0c-2.3.4-3.8,3.4-3.1,5.5s3,3.6,5.5,3.1,6.4-1.1,9.6-1.7c7.7-1.4,15.4-2.7,23-4.1s18.7-3.3,28-5l24.2-4.3c3.9-.7,7.9-1.2,11.7-2.1s.1,0,.2,0l-5.7-4.3v44.1l3.3-4.3c-15.9,5.8-31.4,12.8-47.3,18.7-8.1,3-16.3,5.8-24.7,8-4,1.1-8.1,2-12.2,2.8s-2,.4-3,.5-1,.2-1.5.2-.6,0-.9.1-.9.1-.5,0-.4,0-.5,0c-.2,0-.4,0-.6,0-.5,0-1,.1-1.5.2-1.1.1-2.1.2-3.2.3-4.1.3-8.2.5-12.3.2s-1,0-1.4-.1,0,0,.2,0c-.3,0-.5,0-.8-.1-.5,0-.9-.2-1.4-.3s-.4-.1-.6-.2c-.8-.2.2.2-.2,0s-.8-.4-1.2-.7-.9-.7-.3-.2-.1-.1-.3-.2c-.2-.2-.5-.4-.7-.7-.9-.9-1.7-1.9-2.6-2.9s.3.3.3.3c0,0-.4-.5-.3-.5-.2-.2-.3-.5-.5-.7-.5-.7-.9-1.3-1.4-2-1.7-2.6-3.1-5.4-4.5-8.2s-.7-1.4-1-2.2-.3-.7-.5-1.1c.4.9,0-.2-.2-.5-.6-1.5-1.2-3-1.7-4.6-1-2.8-1.9-5.6-2.6-8.5s-.6-2.4-.8-3.7,0-.5-.1-.7c-.2-1.1,0,.7,0,.1,0-.9-.2-1.7-.2-2.6s0-2,0-3.1,0-1,.1-1.5,0-.6,0-.9.1-.9,0-.5,0-.4,0-.5c0-.2,0-.4.1-.6,0-.5.2-1,.3-1.5.2-1.1.5-2.1.7-3.2,2.2-8.3,5.6-16.3,7.8-24.6s4.7-18.4,7.2-27.6,1.2-4.6,1.9-6.9-.8-5-3.1-5.5-4.9.7-5.5,3.1h0Z"/>
        <path class="cls-1" d="M158.3,208.4c7.7,1.8,15.3,3.7,23,5.5l11.6,2.8c1.6.4,3.1.5,4.7-.3s2.8-1.5,4.1-2.2c5.2-2.9,10.5-6.2,14.7-10.5,1.9-2,3.9-4.4,4.4-7.2s-.5-7.5-2.3-10.9c-3.5-6.6-9.2-12-14.3-17.4-6.1-6.5-12.2-13-18.4-19.6l-.4-.4c-1-1.1-2.9-1.7-4.4-1.2-6.6,2.5-13.3,5-19.9,7.5s-1.9.7-2.9,1.1c-2.2.8-3.9,3.1-3.1,5.5s3.2,4,5.5,3.1c6.6-2.5,13.3-5,19.9-7.5l2.9-1.1-4.4-1.2c7.2,7.7,14.4,15.4,21.6,23.1.9.9,1.7,1.8,2.6,2.7s.9,1,1.4,1.5.9,1,1.4,1.5.5.6.8.9.3.4.5.6c.4.5.2.4,0,0,.5.8,1.2,1.6,1.7,2.4s1.2,1.8,1.7,2.7.5.9.7,1.4-.1.3-.1-.3c0,.2.2.6.3.8.1.4.3.8.4,1.3s0,.3.1.5c.2,1.2,0-.7,0,0s0,1.2,0,1.2c-.3-.2.3-1.2,0-.4s0,.3-.1.4c-.2.9.5-1,0,0s-.4.7-.6,1-.3.4-.4.5c0,0,.8-.9.3-.4s-.5.6-.8.9c-.6.7-1.3,1.3-2,1.9s-.8.7-1.2,1-.4.3-.6.5c-.8.6.8-.6,0,0s-1.8,1.3-2.7,1.9c-1.8,1.2-3.6,2.3-5.4,3.4s-3.9,2.2-5.9,3.2l3.5-.5c-10.4-2.5-20.8-5-31.2-7.5s-3-.7-4.4-1.1c-2.3-.5-5,.7-5.5,3.1s.7,4.9,3.1,5.5h0Z"/>
        <path class="cls-1" d="M171.2,154.8c-5-7.3-10-14.6-15-21.8l-9.1-13.2c-.7-1-1.4-2.1-2.1-3.1s.4,1.2.3.8-.1-.4-.2-.6c-2-7.6-4-15.3-6-22.9-3.1-11.9-6.3-23.9-9.4-35.8s-3.6-14.4-5.6-21.5,0-.2,0-.3c-.5-1.7-2-3-3.7-3.2s-3.4.6-4.5,2.1c-3.7,5.4-7.5,10.8-11.2,16.2l-1.6,2.3,3.9-2.2c-6.9-.3-13.8-.7-20.7-1s-5.2-.5-7.7-.4-3.2,1.4-4.5,2.8l-4,4.4c-2.5,2.8-5,5.5-7.5,8.3l2-1.2c-8.3,1.2-16.6,2.5-25,3.7s-2.3.4-3.5.5c-1.8.3-3.4,2.6-3.3,4.3.3,4,.8,7.9,1.5,11.8,1,5.9,2.5,12.5,6.1,17.3s4.9,4.6,7.9,6.1,6.8,3,10.4,4.2,5.6,1.8,8.4,2.5,1.7.4,2.5.6.4.1.5.1c.6,0-1.4-.8-.9-.4,1.9,1.4,4.1,2.6,6.1,3.8l5.2,3.2-2.1-5.1c-1.3,5.2-2.5,10.5-3.7,15.8-2.2,9.6-4.4,19.1-6.3,28.7s-1.7,8.3-2.2,12.6,2.3,4.6,4.5,4.5,4.2-2,4.5-4.5-.2,1.4,0,.2.1-.7.2-1.1c.1-.8.3-1.6.4-2.4.3-1.9.7-3.8,1.1-5.6.9-4.7,1.9-9.3,3-14,1.9-8.8,3.9-17.5,6-26.2s.9-3.8,1.3-5.6-.3-4-2.1-5.1c-3.5-2.2-6.9-4.3-10.4-6.5s-2-1.1-3.2-1.4c-2.3-.6-4.5-1.2-6.7-1.9-3.2-1-6.4-2.1-9.5-3.3s-.7-.1.2,0c-.2,0-.4-.2-.6-.2-.4-.2-.7-.3-1.1-.5-.8-.4-1.5-.7-2.2-1.1s-1.2-.7-1.8-1-.6-.4-.9-.6-.3-.2-.4-.3c-.7-.5.7.7.2.1s-.8-.8-1.1-1.1.6,1,0,0-.3-.5-.5-.7c-.3-.5-.6-1.1-.9-1.7s-.3-.6-.4-.9c-.3-.7.1.3.2.4,0-.2-.2-.5-.3-.7-1.1-2.8-1.8-5.8-2.4-8.7s-.6-3.1-.8-4.7-.1-.8-.2-1.2c-.2-1.2.1.9,0,0s-.2-1.2-.2-1.9c-.1-1.3-.3-2.6-.4-3.9l-3.3,4.3c6.9-1,13.7-2.1,20.6-3.1l5.4-.8c.8-.1,1.7-.2,2.5-.4,1.5-.4,2.4-1.5,3.4-2.6l4-4.4c2.5-2.8,5-5.5,7.5-8.3l-3.2,1.3c7.6.4,15.1.8,22.7,1.1l4.8.2c2.1.1,3.7-.4,5-2.3,2.1-3,4.2-6,6.3-9s4.3-6.2,6.5-9.4l-8.2-1.1c1.6,6,3.2,12,4.7,18,3.1,11.8,6.2,23.7,9.4,35.5l6.8,25.9c.4,1.6.9,2.8,1.8,4.1l7.8,11.4c5.8,8.4,11.5,16.8,17.3,25.1l.3.5c1.3,1.9,4,3,6.2,1.6s3-4.1,1.6-6.2h0Z"/>
        <path class="cls-1" d="M97.3,235.8v12.5c0,2.4,2.1,4.5,4.5,4.5h43c3,0,6,.1,8.9,0s4.4-1.7,6.3-2.6l11.8-6c10.9-5.6,21.8-11.2,32.7-16.7s13.9-6.9,20.7-10.6.2-.1.3-.2c2.1-1.1,2.9-4.2,1.6-6.2s-3.9-2.8-6.2-1.6c-7.8,4-15.7,8-23.5,12-12.5,6.4-24.9,12.8-37.4,19.2s-5.7,2.9-8.6,4.4l2.3-.6h-52l4.5,4.5v-12.5c0-2.4-2.1-4.6-4.5-4.5s-4.5,2-4.5,4.5h0Z"/>
        <path class="cls-1" d="M93.6,265.7c3.3-4.2,6.7-8.3,10-12.5s.9-1.2,1.4-1.8c.8-1,1.3-1.9,1.3-3.2s-.5-2.4-1.3-3.2-2-1.4-3.2-1.3-2.5.4-3.2,1.3c-3.3,4.2-6.7,8.3-10,12.5s-.9,1.2-1.4,1.8c-.8,1-1.3,1.9-1.3,3.2s.5,2.4,1.3,3.2,2,1.4,3.2,1.3,2.5-.4,3.2-1.3h0Z"/>
      </g>
    </g>
    <g id="Layer_2" class="cls-2">
      <g>
        <path class="cls-1" d="M78.4,128.4c0,1.7,0,3.4-.2,5.1s-.2,1.7-.3,2.5c.1-.9,0-.2,0,0,0,.5-.2,1.1-.3,1.6-.5,3-1.3,5.9-2.4,8.7s-.5,1.3,0,.2c-.1.3-.3.6-.4.9-.2.5-.5,1-.7,1.5-.6,1.2-1.4,2.4-2.2,3.6l-.2.2c-.3.4-.2.3.2-.2,0,.2-.3.4-.5.6-.3.4-.7.8-1.1,1.2s-.8.8-1.2,1.1-.9.4,0,0c-.3.1-.6.4-.9.6s-.7.5-1.1.6-.4.2-.7.3c-.8.4,1-.3.2,0s-.9.3-1.4.4-.7.2-.7.1c0,0,1.3,0,.2,0s-1,0-1.5,0c-1.1,0,.3,0,.2,0s-.7-.1-.7-.1c-.4,0-.9-.2-1.3-.4s-.4.1.3.1c-.3,0-.7-.3-.9-.4-.5-.2-.9-.5-1.3-.8s-.4-.4-.6-.5c.9.4.4.3,0,0-.9-.7-1.7-1.6-2.4-2.4s-.8-.6,0,0c-.2-.1-.4-.5-.5-.7-.3-.4-.6-.9-.9-1.3-.8-1.2-1.4-2.5-2-3.8s-.5-1.3,0-.2c0-.2-.2-.4-.3-.7-.3-.7-.5-1.4-.7-2-.5-1.5-.9-3-1.3-4.6s-.3-1.4-.4-2.1-.1-.8-.2-1.2-.2-1.5,0-.4c-.2-1.7-.4-3.3-.4-5-.1-3.4,0-6.8.4-10.2-.1,1,0-.3,0-.4,0-.4.1-.8.2-1.2.1-.6.2-1.3.4-1.9.4-1.6.8-3.2,1.3-4.8s.5-1.4.7-2,.2-.4.3-.7c-.4,1.1,0,0,0-.2.6-1.3,1.3-2.6,2-3.8s.6-.9.9-1.3.3-.6.5-.7c-.8.5-.3.3,0,0,.7-.9,1.5-1.7,2.4-2.4s.9-.4,0,0c.2,0,.4-.3.6-.5.4-.3.9-.6,1.3-.8s.4-.2.7-.3c.8-.4-.8.3-.3.1s1-.3,1.5-.5.7-.2.7-.1c0,.1-1.3,0-.2,0s1,0,1.5,0c1.2,0-.9-.3.2,0s1.1.3,1.6.5c.9.2-1-.5-.2,0s.6.3.9.5c.5.2.9.5,1.3.8s.3.6,0,0c.2.3.6.5.8.7.5.4,1,.9,1.4,1.4s.3.3.4.4c.1.1.3.3.4.5.3.4.2.3-.1-.2.5.3.9,1.3,1.2,1.8.8,1.2,1.4,2.5,2,3.8s.3.6.4.9c-.5-1.1.1.4.2.6.3.8.6,1.6.8,2.4.5,1.6.9,3.2,1.2,4.8s.3,1.7.5,2.6.2,1.1,0,.2c0,.5.1,1.1.2,1.6.2,2,.3,4,.3,6s2.1,4.6,4.5,4.5,4.5-2,4.5-4.5c0-7.2-1.1-14.5-3.9-21.2s-5.6-11-10.9-14.4-10.7-3.3-15.9-.8-8.8,7.4-11.1,12.4-4.7,13.9-5,21.2.5,14.9,3,21.8,4.9,11.3,9.6,15,10.1,5.3,15.7,3.3,9.7-6.4,12.5-11.4,5.2-13.3,5.8-20.4.2-3.7.3-5.5-2.1-4.6-4.5-4.5-4.5,2-4.5,4.5Z"/>
        <path class="cls-1" d="M132.6,80.2c0,1.7,0,3.4-.2,5.1s-.2,1.7-.3,2.5c.1-.9,0-.2,0,0,0,.5-.2,1.1-.3,1.6-.5,3-1.3,5.9-2.4,8.7s-.5,1.3,0,.2c-.1.3-.3.6-.4.9-.2.5-.5,1-.7,1.5-.6,1.2-1.4,2.4-2.2,3.6l-.2.2c-.3.4-.2.3.2-.2,0,.2-.3.4-.5.6-.3.4-.7.8-1.1,1.2s-.8.8-1.2,1.1-.9.4,0,0c-.3.1-.6.4-.9.6s-.7.5-1.1.6-.4.2-.7.3c-.8.4,1-.3.2,0s-.9.3-1.4.4-.7.2-.7.1c0,0,1.3,0,.2,0s-1,0-1.5,0c-1.1,0,.3,0,.2,0s-.7-.1-.7-.1c-.4,0-.9-.2-1.3-.4s-.4.1.3.1c-.3,0-.7-.3-.9-.4-.5-.2-.9-.5-1.3-.8s-.4-.4-.6-.5c.9.4.4.3,0,0-.9-.7-1.7-1.6-2.4-2.4s-.8-.6,0,0c-.2-.1-.4-.5-.5-.7-.3-.4-.6-.9-.9-1.3-.8-1.2-1.4-2.5-2-3.8s-.5-1.3,0-.2c0-.2-.2-.4-.3-.7-.3-.7-.5-1.4-.7-2-.5-1.5-.9-3-1.3-4.6s-.3-1.4-.4-2.1-.1-.8-.2-1.2-.2-1.5,0-.4c-.2-1.7-.4-3.3-.4-5-.1-3.4,0-6.8.4-10.2-.1,1,0-.3,0-.4,0-.4.1-.8.2-1.2.1-.6.2-1.3.4-1.9.4-1.6.8-3.2,1.3-4.8s.5-1.4.7-2,.2-.4.3-.7c-.4,1.1,0,0,0-.2.6-1.3,1.3-2.6,2-3.8s.6-.9.9-1.3.3-.6.5-.7c-.8.5-.3.3,0,0,.7-.9,1.5-1.7,2.4-2.4s.9-.4,0,0c.2,0,.4-.3.6-.5.4-.3.9-.6,1.3-.8s.4-.2.7-.3c.8-.4-.8.3-.3.1s1-.3,1.5-.5.7-.2.7-.1c0,.1-1.3,0-.2,0s1,0,1.5,0c1.2,0-.9-.3.2,0s1.1.3,1.6.5c.9.2-1-.5-.2,0s.6.3.9.5c.5.2.9.5,1.3.8s.3.6,0,0c.2.3.6.5.8.7.5.4,1,.9,1.4,1.4s.3.3.4.4c.1.1.3.3.4.5.3.4.2.3-.1-.2.5.3.9,1.3,1.2,1.8.8,1.2,1.4,2.5,2,3.8s.3.6.4.9c-.5-1.1.1.4.2.6.3.8.6,1.6.8,2.4.5,1.6.9,3.2,1.2,4.8s.3,1.7.5,2.6.2,1.1,0,.2c0,.5.1,1.1.2,1.6.2,2,.3,4,.3,6s2.1,4.6,4.5,4.5,4.5-2,4.5-4.5c0-7.2-1.1-14.5-3.9-21.2s-5.6-11-10.9-14.4-10.7-3.3-15.9-.8-8.8,7.4-11.1,12.4-4.7,13.9-5,21.2.5,14.9,3,21.8,4.9,11.3,9.6,15,10.1,5.3,15.7,3.3,9.7-6.4,12.5-11.4,5.2-13.3,5.8-20.4.2-3.7.3-5.5-2.1-4.6-4.5-4.5-4.5,2-4.5,4.5Z"/>
        <path class="cls-1" d="M194.2,80.2c0,1.7,0,3.4-.2,5.1s-.2,1.7-.3,2.5c.1-.9,0-.2,0,0,0,.5-.2,1.1-.3,1.6-.5,3-1.3,5.9-2.4,8.7s-.5,1.3,0,.2c-.1.3-.3.6-.4.9-.2.5-.5,1-.7,1.5-.6,1.2-1.4,2.4-2.2,3.6l-.2.2c-.3.4-.2.3.2-.2,0,.2-.3.4-.5.6-.3.4-.7.8-1.1,1.2s-.8.8-1.2,1.1-.9.4,0,0c-.3.1-.6.4-.9.6s-.7.5-1.1.6-.4.2-.7.3c-.8.4,1-.3.2,0s-.9.3-1.4.4-.7.2-.7.1c0,0,1.3,0,.2,0s-1,0-1.5,0c-1.1,0,.3,0,.2,0s-.7-.1-.7-.1c-.4,0-.9-.2-1.3-.4s-.4.1.3.1c-.3,0-.7-.3-.9-.4-.5-.2-.9-.5-1.3-.8s-.4-.4-.6-.5c.9.4.4.3,0,0-.9-.7-1.7-1.6-2.4-2.4s-.8-.6,0,0c-.2-.1-.4-.5-.5-.7-.3-.4-.6-.9-.9-1.3-.8-1.2-1.4-2.5-2-3.8s-.5-1.3,0-.2c0-.2-.2-.4-.3-.7-.3-.7-.5-1.4-.7-2-.5-1.5-.9-3-1.3-4.6s-.3-1.4-.4-2.1-.1-.8-.2-1.2-.2-1.5,0-.4c-.2-1.7-.4-3.3-.4-5-.1-3.4,0-6.8.4-10.2-.1,1,0-.3,0-.4,0-.4.1-.8.2-1.2.1-.6.2-1.3.4-1.9.4-1.6.8-3.2,1.3-4.8s.5-1.4.7-2,.2-.4.3-.7c-.4,1.1,0,0,0-.2.6-1.3,1.3-2.6,2-3.8s.6-.9.9-1.3.3-.6.5-.7c-.8.5-.3.3,0,0,.7-.9,1.5-1.7,2.4-2.4s.9-.4,0,0c.2,0,.4-.3.6-.5.4-.3.9-.6,1.3-.8s.4-.2.7-.3c.8-.4-.8.3-.3.1s1-.3,1.5-.5.7-.2.7-.1c0,.1-1.3,0-.2,0s1,0,1.5,0c1.2,0-.9-.3.2,0s1.1.3,1.6.5c.9.2-1-.5-.2,0s.6.3.9.5c.5.2.9.5,1.3.8s.3.6,0,0c.2.3.6.5.8.7.5.4,1,.9,1.4,1.4s.3.3.4.4c.1.1.3.3.4.5.3.4.2.3-.1-.2.5.3.9,1.3,1.2,1.8.8,1.2,1.4,2.5,2,3.8s.3.6.4.9c-.5-1.1.1.4.2.6.3.8.6,1.6.8,2.4.5,1.6.9,3.2,1.2,4.8s.3,1.7.5,2.6.2,1.1,0,.2c0,.5.1,1.1.2,1.6.2,2,.3,4,.3,6s2.1,4.6,4.5,4.5,4.5-2,4.5-4.5c0-7.2-1.1-14.5-3.9-21.2s-5.6-11-10.9-14.4-10.7-3.3-15.9-.8-8.8,7.4-11.1,12.4c-3.2,6.6-4.7,13.9-5,21.2-.3,7.3.5,14.9,3,21.8,2,5.6,4.9,11.3,9.6,15s10.1,5.3,15.7,3.3,9.7-6.4,12.5-11.4,5.2-13.3,5.8-20.4.2-3.7.3-5.5-2.1-4.6-4.5-4.5-4.5,2-4.5,4.5Z"/>
        <path class="cls-1" d="M250.4,137.5c0,1.7,0,3.4-.2,5.1s-.2,1.7-.3,2.5c.1-.9,0-.2,0,0,0,.5-.2,1.1-.3,1.6-.5,3-1.3,5.9-2.4,8.7s-.5,1.3,0,.2c-.1.3-.3.6-.4.9-.2.5-.5,1-.7,1.5-.6,1.2-1.4,2.4-2.2,3.6l-.2.2c-.3.4-.2.3.2-.2,0,.2-.3.4-.5.6-.3.4-.7.8-1.1,1.2s-.8.8-1.2,1.1-.9.4,0,0c-.3.1-.6.4-.9.6s-.7.5-1.1.6-.4.2-.7.3c-.8.4,1-.3.2,0s-.9.3-1.4.4-.7.2-.7.1c0,0,1.3,0,.2,0s-1,0-1.5,0c-1.1,0,.3,0,.2,0s-.7-.1-.7-.1c-.4,0-.9-.2-1.3-.4s-.4.1.3.1c-.3,0-.7-.3-.9-.4-.5-.2-.9-.5-1.3-.8s-.4-.4-.6-.5c.9.4.4.3,0,0-.9-.7-1.7-1.6-2.4-2.4s-.8-.6,0,0c-.2-.1-.4-.5-.5-.7-.3-.4-.6-.9-.9-1.3-.8-1.2-1.4-2.5-2-3.8s-.5-1.3,0-.2c0-.2-.2-.4-.3-.7-.3-.7-.5-1.4-.7-2-.5-1.5-.9-3-1.3-4.6s-.3-1.4-.4-2.1-.1-.8-.2-1.2-.2-1.5,0-.4c-.2-1.7-.4-3.3-.4-5-.1-3.4,0-6.8.4-10.2-.1,1,0-.3,0-.4,0-.4.1-.8.2-1.2.1-.6.2-1.3.4-1.9.4-1.6.8-3.2,1.3-4.8s.5-1.4.7-2,.2-.4.3-.7c-.4,1.1,0,0,0-.2.6-1.3,1.3-2.6,2-3.8s.6-.9.9-1.3.3-.6.5-.7c-.8.5-.3.3,0,0,.7-.9,1.5-1.7,2.4-2.4s.9-.4,0,0c.2,0,.4-.3.6-.5.4-.3.9-.6,1.3-.8s.4-.2.7-.3c.8-.4-.8.3-.3.1s1-.3,1.5-.5.7-.2.7-.1c0,.1-1.3,0-.2,0s1,0,1.5,0c1.2,0-.9-.3.2,0s1.1.3,1.6.5c.9.2-1-.5-.2,0s.6.3.9.5c.5.2.9.5,1.3.8s.3.6,0,0c.2.3.6.5.8.7.5.4,1,.9,1.4,1.4s.3.3.4.4c.1.1.3.3.4.5.3.4.2.3-.1-.2.5.3.9,1.3,1.2,1.8.8,1.2,1.4,2.5,2,3.8s.3.6.4.9c-.5-1.1.1.4.2.6.3.8.6,1.6.8,2.4.5,1.6.9,3.2,1.2,4.8s.3,1.7.5,2.6.2,1.1,0,.2c0,.5.1,1.1.2,1.6.2,2,.3,4,.3,6s2.1,4.6,4.5,4.5,4.5-2,4.5-4.5c0-7.2-1.1-14.5-3.9-21.2s-5.6-11-10.9-14.4-10.7-3.3-15.9-.8-8.8,7.4-11.1,12.4c-3.2,6.6-4.7,13.9-5,21.2-.3,7.3.5,14.9,3,21.8,2,5.6,4.9,11.3,9.6,15,4.4,3.5,10.1,5.3,15.7,3.3s9.7-6.4,12.5-11.4c3.5-6.2,5.2-13.3,5.8-20.4s.2-3.7.3-5.5-2.1-4.6-4.5-4.5-4.5,2-4.5,4.5Z"/>
        <path class="cls-1" d="M154,232.3c-8.5-.9-17.6.2-25.6,3.5s-11.2,6.5-16.8,9.6-1.4.8-2.1,1.1-.6.3-.9.4-1.3.7-.4.2c-1.3.7-2.9,1.1-4.4,1.4s-.7.2-1.1.2-.3,0-.5,0c0,0,.9,0,.4,0-.8,0-1.7.1-2.5.1s-.7,0-1,0-1.4-.2-.8,0,0,0-.1,0c-.2,0-.5,0-.7-.1-.5-.1-1-.2-1.5-.4s-.7-.2-1.1-.3-.5-.2-.7-.2-.6-.3-.1,0-.6-.3-.7-.4c-.4-.2-.7-.4-1.1-.6-.7-.4-1.3-.9-2-1.3s.2.2.2.2c-.2-.1-.3-.3-.5-.4-.3-.3-.6-.5-.9-.8-.6-.5-1.1-1.1-1.6-1.7s-.4-.5-.7-.8c-.4-.5.4.6,0,.1s-.3-.4-.4-.6c-.9-1.3-1.8-2.7-2.5-4.1s-.7-1.4-1-2.1-.2-.4-.3-.6c0,0,.3.7.1.3s-.4-.9-.5-1.3c-.6-1.5-1.1-3-1.5-4.6s-.4-1.7-.5-2.5-.2-1.1,0-.3c0-.5-.1-1-.2-1.5-.2-1.8-.2-3.5-.2-5.3s.2-3.6.4-5.5,0,.5,0-.4.1-.9.2-1.4c.2-1,.4-2,.6-3,.8-3.7,1.8-7.3,2.9-10.8s2.4-7,3.8-10.5.6-1.5.9-2.3.3-.7,0-.2,0-.2.1-.3c.2-.4.3-.8.5-1.2.7-1.6,1.4-3.1,2.1-4.7,1.7-3.7,3.5-7.3,5.7-10.8s2.2-3.4,3.4-5,.5-.7.8-1c-.4.6.4-.5.5-.6.7-.8,1.4-1.7,2.1-2.5,1.2-1.3,2.4-2.5,3.7-3.6s1.3-1.1,1.9-1.6-.2.1-.2.2c.1-.1.3-.2.4-.3.4-.3.8-.5,1.1-.8,1.3-.9,2.7-1.8,4.1-2.6s1.3-.7,2-1,.7-.4,1.1-.5.3-.1.5-.2,1-.4.4-.2.4-.2.6-.2c.4-.1.8-.3,1.1-.4.8-.3,1.5-.5,2.3-.8,1.6-.5,3.1-.9,4.7-1.3s3.2-.7,4.9-.9.7,0,.1,0,.1,0,.3,0c.4,0,.7,0,1.1-.1.9,0,1.8-.2,2.7-.2,3.3-.2,6.7-.2,10,0s1.5.1,2.3.2.8,0,1.2.1.4,0,.5,0c.7,0-.8-.1-.1,0,1.6.2,3.3.5,4.9.8,3.2.7,6.4,1.5,9.5,2.6s2.9,1,4.3,1.6,0,0-.1,0c.2,0,.3.1.5.2.4.2.7.3,1.1.5.8.4,1.6.7,2.4,1.1,3.1,1.5,6.1,3.2,8.9,5.1s2.8,1.9,4.2,2.9.6.4.9.7c-.7-.5.1,0,.4.3.7.5,1.3,1.1,1.9,1.6,2.5,2.2,5,4.5,7.2,6.9s2.2,2.5,3.3,3.7,1,1.2,1.5,1.8.3.4.4.6c0,0-.5-.6-.2-.2s.6.8.9,1.1c3.9,5.3,7.3,11.1,10.1,17.1s.6,1.4,1,2.1.3.8.5,1.2c-.4-.9.1.3.2.6.6,1.5,1.2,3,1.7,4.6,1.1,3.2,2.1,6.4,3,9.7s1.5,6.5,2.1,9.8.3,1.7.4,2.5.1.7.2,1.1c-.2-1.1,0,.5,0,.7.2,2,.3,4,.1,6s0,.4,0,.6c0,.7.1-.6,0,0s-.2,1-.3,1.5-.2.8-.3,1.2-.2.5-.3.8-.2.5,0,.1c-.4.8-.8,1.6-1.3,2.3s-.6.8-.2.4-.1.1-.1.2c-.3.4-.7.8-1.1,1.2-.6.6-1.3,1.2-1.9,1.8s-.3.3-.5.4c.6-.5,0,0,0,0-.4.3-.9.6-1.3.9-1.6,1.1-3.4,2.1-5.1,2.9s-1.4.6-.7.3c-.5.2-.9.4-1.4.5-.9.3-1.9.6-2.8.9s-1.8.4-2.6.6-.5,0-.8.1c0,0,.7,0,.2,0s-1.1.1-1.6.1c-.9,0-1.8,0-2.7,0s-1,0-1.4,0-.4,0-.6,0c.7,0,0,0-.3,0-1.9-.3-3.8-.9-5.6-1.6.6.3-.6-.3-.8-.4-.5-.2-.9-.5-1.4-.7-.9-.5-1.9-1-2.8-1.6-1.8-1.1-3.6-2.2-5.4-3.3-3.8-2.3-7.8-4.4-12-5.9s-8.3-2.3-12.6-2.7-4.6,2.3-4.5,4.5,2,4.2,4.5,4.5.6,0,.9.1c0,0-.6,0,0,0s1,.2,1.6.3c1.1.2,2.2.4,3.3.7,2.1.5,4.2,1.2,6.2,2s.8.3.2,0c.2,0,.4.2.6.3.5.2,1,.4,1.4.7,1,.5,2,1,3,1.6,1.9,1.1,3.8,2.3,5.6,3.4,3.9,2.4,7.9,4.7,12.3,6s8.5,1.6,12.7,1c8.5-1.1,17.6-5.2,23.4-11.7s5.1-8,5.8-12.9c.5-4.2,0-8.4-.7-12.6-2.2-14-6.9-27.7-14-39.9-7.3-12.4-17.2-23.2-29.2-31.2-12-7.9-25.9-12.6-40.3-13.6s-28.7,1.8-40.3,9.8c-13.6,9.5-20.9,24.8-27,39.8s-5.5,14.6-7,22.3-2.1,15.9-.2,23.7,5.1,14,10.2,19.1,13.1,8.3,20.7,7.4,13.2-4.5,19.2-8.3c2.8-1.8,5.6-3.5,8.6-5s.6-.3.9-.4c.7-.3,0,0-.1,0,.2,0,.3-.1.5-.2.8-.3,1.7-.6,2.5-.9,2.2-.7,4.4-1.2,6.7-1.5s.6,0,.9-.1c.5,0,0,0,0,0,.5,0,1.1-.1,1.6-.2,1.1,0,2.2-.2,3.3-.2,2.3,0,4.6,0,6.8.3s4.6-2.2,4.5-4.5-2-4.2-4.5-4.5Z"/>
      </g>
    </g>
  </g>
</svg>